<svg xmlns="http://www.w3.org/2000/svg" viewBox="0 0 49.14 64.91"><defs><style>.cls-1{fill:none;stroke:#1d1d1b;stroke-miterlimit:10;stroke-width:3px;}</style></defs><g id="Слой_2" data-name="Слой 2"><g id="Слой_1-2" data-name="Слой 1"><path class="cls-1" d="M39.83,20.93V56.34a7.06,7.06,0,0,1-7.07,7.07H8.57A7.07,7.07,0,0,1,1.5,56.34V15.47A7.07,7.07,0,0,1,8.57,8.4H20.83c0,.16,0,.33,0,.5a7.37,7.37,0,0,0,2.42,5.49l0,0,11,13.41Z"/><line class="cls-1" x1="5.39" y1="37.05" x2="34.23" y2="37.05"/><line class="cls-1" x1="5.39" y1="28.59" x2="28.75" y2="28.59"/><line class="cls-1" x1="5.39" y1="45.76" x2="32.3" y2="45.76"/><line class="cls-1" x1="5.39" y1="53.03" x2="30.2" y2="53.03"/><path class="cls-1" d="M47.64,8.9a7.4,7.4,0,0,1-2.56,5.6l-5.25,6.43-5.62,6.89L23.26,14.41l0,0A7.37,7.37,0,0,1,20.82,8.9c0-.17,0-.34,0-.5A7.4,7.4,0,0,1,34.22,4.58,7.41,7.41,0,0,1,47.64,8.9Z"/></g></g></svg>