<svg width="21" height="15" viewBox="0 0 21 15" fill="none" xmlns="http://www.w3.org/2000/svg">
<path d="M19.7451 7.88628L12.4052 14.0202C12.2912 14.1155 12.1558 14.1911 12.0067 14.2427C11.8577 14.2943 11.698 14.3209 11.5367 14.3209C11.3754 14.3209 11.2157 14.2943 11.0666 14.2427C10.9176 14.1911 10.7822 14.1155 10.6681 14.0202C10.5541 13.9249 10.4636 13.8117 10.4019 13.6872C10.3401 13.5626 10.3084 13.4292 10.3084 13.2944C10.3084 13.1596 10.3401 13.0261 10.4019 12.9015C10.4636 12.777 10.5541 12.6638 10.6681 12.5685L15.9284 8.18275H1.75017C1.42573 8.18275 1.11457 8.07504 0.885156 7.88332C0.65574 7.6916 0.526855 7.43157 0.526855 7.16043C0.526855 6.8893 0.65574 6.62926 0.885156 6.43754C1.11457 6.24582 1.42573 6.13811 1.75017 6.13811H15.9284L10.6681 1.75235C10.4378 1.55985 10.3084 1.29875 10.3084 1.0265C10.3084 0.754258 10.4378 0.493163 10.6681 0.300656C10.8985 0.108149 11.2109 4.05678e-09 11.5367 0C11.8625 -4.05678e-09 12.1749 0.108149 12.4052 0.300656L19.7451 6.43458C19.8598 6.52962 19.9508 6.64269 20.0129 6.76727C20.075 6.89185 20.107 7.02547 20.107 7.16043C20.107 7.29539 20.075 7.42901 20.0129 7.55359C19.9508 7.67817 19.8598 7.79124 19.7451 7.88628V7.88628Z" fill="white"/>
</svg>
