<svg width="17" height="18" viewBox="0 0 17 18" fill="none" xmlns="http://www.w3.org/2000/svg">
<path d="M7.50175 16.6982L0.350637 10.3208C0.239509 10.2217 0.151357 10.104 0.0912166 9.97453C0.0310759 9.84504 0.000121595 9.70626 0.000121601 9.56611C0.000121608 9.42596 0.031076 9.28717 0.0912166 9.15769C0.151357 9.0282 0.239509 8.91055 0.350637 8.81145C0.461763 8.71235 0.593689 8.63373 0.738883 8.5801C0.884077 8.52646 1.03969 8.49886 1.19685 8.49886C1.35401 8.49886 1.50962 8.52646 1.65482 8.5801C1.80001 8.63373 1.93194 8.71235 2.04306 8.81145L7.15611 13.3819L7.15611 1.0629C7.15611 0.781002 7.28168 0.510649 7.50519 0.311316C7.72871 0.111984 8.03186 -3.37738e-07 8.34796 -3.25416e-07C8.66406 -3.13094e-07 8.96721 0.111984 9.19073 0.311316C9.41424 0.510649 9.53981 0.781002 9.53981 1.0629L9.53981 13.3819L14.6529 8.81145C14.8773 8.6113 15.1817 8.49886 15.4991 8.49886C15.8165 8.49886 16.1209 8.6113 16.3453 8.81145C16.5697 9.0116 16.6958 9.28306 16.6958 9.56611C16.6958 9.84916 16.5697 10.1206 16.3453 10.3208L9.19417 16.6982C9.08338 16.7978 8.95156 16.8769 8.80632 16.9308C8.66108 16.9848 8.5053 17.0126 8.34796 17.0126C8.19062 17.0126 8.03484 16.9848 7.8896 16.9308C7.74436 16.8769 7.61254 16.7978 7.50175 16.6982Z" fill="#C4C4C4"/>
</svg>
