<svg width="23" height="22" viewBox="0 0 23 22" fill="none" xmlns="http://www.w3.org/2000/svg">
<path d="M22.1619 12.1311L13.9706 20.9346C13.8433 21.0714 13.6922 21.1799 13.5259 21.254C13.3596 21.328 13.1813 21.3661 13.0013 21.3661C12.8213 21.3661 12.643 21.328 12.4767 21.254C12.3104 21.1799 12.1593 21.0714 12.032 20.9346C11.9047 20.7978 11.8037 20.6354 11.7348 20.4567C11.666 20.2779 11.6305 20.0863 11.6305 19.8929C11.6305 19.6994 11.666 19.5078 11.7348 19.3291C11.8037 19.1503 11.9047 18.9879 12.032 18.8511L17.9024 12.5566H2.07957C1.71749 12.5566 1.37025 12.402 1.11422 12.1268C0.858191 11.8517 0.714355 11.4785 0.714355 11.0893C0.714355 10.7002 0.858191 10.327 1.11422 10.0518C1.37025 9.77664 1.71749 9.62206 2.07957 9.62206H17.9024L12.032 3.32752C11.7749 3.05123 11.6305 2.6765 11.6305 2.28576C11.6305 1.89503 11.7749 1.5203 12.032 1.24401C12.2891 0.967718 12.6377 0.8125 13.0013 0.8125C13.3649 0.8125 13.7135 0.967718 13.9706 1.24401L22.1619 10.0476C22.2899 10.184 22.3914 10.3462 22.4607 10.525C22.53 10.7038 22.5657 10.8956 22.5657 11.0893C22.5657 11.283 22.53 11.4748 22.4607 11.6536C22.3914 11.8324 22.2899 11.9947 22.1619 12.1311Z" fill="#4A4A49"/>
</svg>
