<svg width="10" height="13" viewBox="0 0 10 13" fill="none" xmlns="http://www.w3.org/2000/svg">
<path d="M9.50781 7.32208L2.85212 12.4477C2.53879 12.689 2.11384 12.8246 1.67073 12.8246C1.22763 12.8246 0.802669 12.689 0.489345 12.4477C0.176022 12.2064 0 11.8791 0 11.5379C0 11.1967 0.176022 10.8694 0.489345 10.6281L5.9803 6.41228L0.489345 2.19645C0.176022 1.95516 0 1.62789 0 1.28665C0 1.11768 0.0432137 0.950374 0.127176 0.79427C0.211138 0.638167 0.334204 0.496328 0.489345 0.376851C0.644487 0.257375 0.828667 0.162601 1.03137 0.0979408C1.23407 0.0332806 1.45133 0 1.67073 0C2.11384 0 2.53879 0.135557 2.85212 0.376851L9.50781 5.50248C9.66377 5.6216 9.78756 5.76333 9.87203 5.91948C9.95651 6.07563 10 6.24312 10 6.41228C10 6.58144 9.95651 6.74893 9.87203 6.90508C9.78756 7.06123 9.66377 7.20295 9.50781 7.32208Z" fill="#C4C4C4"/>
</svg>
