<svg width="10" height="13" viewBox="0 0 10 13" fill="none" xmlns="http://www.w3.org/2000/svg">
<path d="M9.51065 10.6281C9.82398 10.8694 10 11.1967 10 11.5379C10 11.8791 9.82398 12.2064 9.51065 12.4477C9.19733 12.689 8.77237 12.8246 8.32927 12.8246C7.88616 12.8246 7.46121 12.689 7.14788 12.4477L0.492186 7.32208C0.336229 7.20295 0.212443 7.06123 0.127968 6.90508C0.0434924 6.74893 0 6.58144 0 6.41228C0 6.24312 0.0434924 6.07563 0.127968 5.91948C0.212443 5.76333 0.336229 5.6216 0.492186 5.50248L7.14788 0.376851C7.30302 0.257375 7.4872 0.162601 7.68991 0.0979408C7.89261 0.0332806 8.10987 0 8.32927 0C8.54867 0 8.76593 0.0332806 8.96863 0.0979408C9.17133 0.162601 9.35551 0.257375 9.51065 0.376851C9.6658 0.496328 9.78886 0.638167 9.87282 0.794271C9.95679 0.950374 10 1.11768 10 1.28665C10 1.45562 9.95679 1.62293 9.87282 1.77903C9.78886 1.93513 9.6658 2.07697 9.51065 2.19645L4.0197 6.41228L9.51065 10.6281Z" fill="white"/>
</svg>
