<svg width="21" height="24" viewBox="0 0 21 24" fill="none" xmlns="http://www.w3.org/2000/svg">
<path d="M20.4857 20.0773C20.815 20.4446 21 20.9427 21 21.4621C21 21.9815 20.815 22.4796 20.4857 22.8469C20.1564 23.2141 19.7097 23.4205 19.244 23.4205C18.7783 23.4205 18.3317 23.2141 18.0024 22.8469L10.5 14.4603L2.99762 22.8469C2.66831 23.2141 2.22167 23.4205 1.75596 23.4205C1.29025 23.4205 0.843617 23.2141 0.51431 22.8469C0.185003 22.4796 0 21.9815 0 21.4621C0 20.9427 0.185003 20.4446 0.51431 20.0773L8.03418 11.7102L0.51431 3.34312C0.185003 2.97586 -3.46981e-09 2.47774 0 1.95836C3.46981e-09 1.43897 0.185003 0.940852 0.51431 0.573589C0.843617 0.206326 1.29025 3.86974e-09 1.75596 0C2.22167 -3.86974e-09 2.66831 0.206326 2.99762 0.573589L10.5 8.9602L18.0024 0.573589C18.3317 0.206326 18.7783 0 19.244 0C19.7097 0 20.1564 0.206326 20.4857 0.573589C20.815 0.940852 21 1.43897 21 1.95836C21 2.47774 20.815 2.97586 20.4857 3.34312L12.9658 11.7102L20.4857 20.0773Z" fill="white"/>
</svg>
