<svg xmlns="http://www.w3.org/2000/svg" viewBox="0 0 56.85 50.9"><defs><style>.cls-1{fill:none;stroke:#1d1d1b;stroke-miterlimit:10;stroke-width:3px;}</style></defs><g id="Слой_2" data-name="Слой 2"><g id="Слой_1-2" data-name="Слой 1"><path class="cls-1" d="M55.35,22.51c-.2-11.87-12.41-21.27-27.29-21S1.3,11.61,1.5,23.47s12.41,21.27,27.29,21a32.4,32.4,0,0,0,11-2.1l12.54,6-1.21-14A18.43,18.43,0,0,0,55.35,22.51Zm-40.7,4.54a3.86,3.86,0,1,1,3.72-3.86A3.8,3.8,0,0,1,14.65,27.05Zm13.81,0a3.86,3.86,0,1,1,3.73-3.86A3.79,3.79,0,0,1,28.46,27.05Zm13.82,0A3.86,3.86,0,1,1,46,23.19,3.8,3.8,0,0,1,42.28,27.05Z"/></g></g></svg>