<svg xmlns="http://www.w3.org/2000/svg" viewBox="0 0 59.24 65.99"><defs><style>.cls-1{fill:none;stroke:#1d1d1b;stroke-miterlimit:10;stroke-width:3px;}</style></defs><g id="Слой_2" data-name="Слой 2"><g id="Слой_1-2" data-name="Слой 1"><path class="cls-1" d="M1.57,19.88C1.13,15.64,2.84,11.47,4.4,7.53A3.43,3.43,0,0,1,5.74,5.91l5.92-3.84a3.51,3.51,0,0,1,4.86,1L22,11.6a3.52,3.52,0,0,1-1,4.86l-5.6,3.63a3.52,3.52,0,0,0-1,4.86L29.51,48.29a3.52,3.52,0,0,0,4.86,1L40,45.69a3.51,3.51,0,0,1,4.85,1l5.59,8.61a3.51,3.51,0,0,1-1,4.86l-5.74,3.72a3.45,3.45,0,0,1-2.16.56c-4.48-.36-9.32-.45-12.9-3"/><line class="cls-1" x1="1.57" y1="19.88" x2="28.59" y2="61.53"/><path class="cls-1" d="M29.74,9.18A26.28,26.28,0,0,1,49.09,40.92"/><path class="cls-1" d="M27.68,17.68A17.53,17.53,0,0,1,40.59,38.86"/><path class="cls-1" d="M31.6,1.5A34.19,34.19,0,0,1,56.77,42.78"/></g></g></svg>