<svg xmlns="http://www.w3.org/2000/svg" viewBox="0 0 61.38 49.3"><defs><style>.cls-1{fill:none;stroke:#1d1d1b;stroke-miterlimit:10;stroke-width:3px;}</style></defs><g id="Слой_2" data-name="Слой 2"><g id="Слой_1-2" data-name="Слой 1"><path class="cls-1" d="M35.52,34.84v13H1.5v-13a8.47,8.47,0,0,1,8.34-8.61H27.18a8.07,8.07,0,0,1,3.51.8A8.61,8.61,0,0,1,35.52,34.84Z"/><path class="cls-1" d="M29,12.31a11,11,0,0,1-1.15,4.93,10.61,10.61,0,0,1-3.46,4,10.17,10.17,0,0,1-5.85,1.85A10.65,10.65,0,0,1,8,12.31,10.65,10.65,0,0,1,18.51,1.5,10.64,10.64,0,0,1,29,12.31Z"/><path class="cls-1" d="M59.88,34.84v13H35.52v-13A8.61,8.61,0,0,0,30.69,27a8.11,8.11,0,0,1,3.51-.8H51.55A8.46,8.46,0,0,1,59.88,34.84Z"/><path class="cls-1" d="M53.34,12.31a10.84,10.84,0,0,1-1.15,4.93,10.52,10.52,0,0,1-3.46,4,10.14,10.14,0,0,1-5.85,1.85A10.64,10.64,0,0,1,32.42,12.31a10.47,10.47,0,1,1,20.92,0Z"/></g></g></svg>