<svg width="205" height="57" viewBox="0 0 205 57" fill="none" xmlns="http://www.w3.org/2000/svg">
<path d="M20.7793 54.0879C20.5254 54.0879 20.3984 54.0156 20.3984 53.8711C20.3984 53.7578 20.4688 53.7012 20.6094 53.7012L20.8965 53.7305C21.1309 53.7305 21.2891 53.5996 21.3711 53.3379C21.4375 53.1152 21.4707 52.7168 21.4707 52.1426V48.0059C21.4707 47.4316 21.4434 47.0566 21.3887 46.8809C21.334 46.7012 21.2676 46.5801 21.1895 46.5176C21.1152 46.4512 21.0176 46.418 20.8965 46.418L20.6094 46.4414C20.4688 46.4414 20.3984 46.3848 20.3984 46.2715C20.3984 46.127 20.5059 46.0547 20.7207 46.0547C20.9355 46.0547 21.123 46.0703 21.2832 46.1016C21.4434 46.1328 21.6016 46.1484 21.7578 46.1484C22.1719 46.1484 22.5156 46.1289 22.7891 46.0898C23.2031 46.0312 23.6777 46.002 24.2129 46.002C24.752 46.002 25.2871 46.0977 25.8184 46.2891C26.3535 46.4805 26.8125 46.752 27.1953 47.1035C28.0117 47.8496 28.4199 48.8301 28.4199 50.0449C28.4199 51.1973 28.0195 52.1562 27.2188 52.9219C26.3906 53.7188 25.3047 54.1172 23.9609 54.1172C23.6367 54.1172 23.3223 54.1035 23.0176 54.0762C22.4512 54.0254 22.041 54 21.7871 54L20.7793 54.0879ZM22.3906 51.2988C22.3906 51.9941 22.4082 52.6406 22.4434 53.2383C22.9629 53.5078 23.5469 53.6426 24.1953 53.6426C24.668 53.6426 25.1582 53.5312 25.666 53.3086C26.4707 52.957 26.9961 52.3281 27.2422 51.4219C27.332 51.1016 27.377 50.6875 27.377 50.1797C27.377 49.668 27.2891 49.1738 27.1133 48.6973C26.9414 48.2168 26.6992 47.8125 26.3867 47.4844C25.75 46.8086 24.8926 46.4707 23.8145 46.4707C23.0449 46.4707 22.6035 46.5723 22.4902 46.7754C22.4316 46.8848 22.4004 47.0098 22.3965 47.1504C22.3926 47.2871 22.3906 47.4219 22.3906 47.5547V51.2988ZM35.8948 54.0879C35.68 54.0879 35.5726 54.0156 35.5726 53.8711C35.5726 53.7578 35.6429 53.7012 35.7835 53.7012L36.0706 53.7305C36.2894 53.7305 36.4378 53.6367 36.5159 53.4492C36.6019 53.2344 36.6448 52.8047 36.6448 52.1602V48.0059C36.6448 47.3652 36.6136 46.9629 36.5511 46.7988C36.4925 46.6309 36.4261 46.5254 36.3519 46.4824C36.2777 46.4395 36.1839 46.418 36.0706 46.418L35.7835 46.4414C35.6429 46.4414 35.5726 46.3848 35.5726 46.2715C35.5726 46.127 35.6761 46.0547 35.8831 46.0547C36.0941 46.0547 36.2659 46.0605 36.3988 46.0723C36.5355 46.0801 36.6722 46.0898 36.8089 46.1016C37.1722 46.1328 37.4573 46.1484 37.6644 46.1484C37.8753 46.1484 38.098 46.1445 38.3323 46.1367C38.5667 46.125 38.8284 46.1133 39.1175 46.1016C39.8792 46.0703 40.4066 46.0547 40.6995 46.0547C40.9964 46.0547 41.1605 46.0723 41.1917 46.1074C41.2269 46.1426 41.2445 46.1914 41.2445 46.2539C41.2445 46.3125 41.2425 46.3691 41.2386 46.4238C41.2386 46.4785 41.2366 46.5391 41.2327 46.6055C41.2288 46.6953 41.2171 46.8301 41.1976 47.0098C41.178 47.1855 41.1546 47.3047 41.1273 47.3672C41.0999 47.4258 41.0609 47.4551 41.0101 47.4551C40.9593 47.4551 40.9241 47.4434 40.9046 47.4199C40.8851 47.3926 40.8577 47.334 40.8226 47.2441C40.7913 47.1504 40.7327 47.0625 40.6468 46.9805C40.5648 46.8945 40.4339 46.8242 40.2542 46.7695C39.9027 46.6641 39.2523 46.6113 38.303 46.6113H37.7816C37.6878 46.6113 37.6273 46.625 37.5999 46.6523C37.5765 46.6797 37.5648 46.7422 37.5648 46.8398V49.3066C38.0296 49.3613 38.4144 49.3887 38.7191 49.3887C39.0277 49.3887 39.2464 49.3867 39.3753 49.3828C39.5081 49.3789 39.6175 49.3672 39.7034 49.3477C39.8558 49.3203 39.9652 49.252 40.0316 49.1426C40.1644 48.9355 40.2718 48.832 40.3538 48.832C40.4593 48.832 40.512 48.8867 40.512 48.9961L40.307 49.8281L40.3304 50.2734C40.3304 50.5547 40.264 50.6953 40.1312 50.6953C40.0179 50.6953 39.9613 50.6211 39.9613 50.4727C39.9613 50.3203 39.9515 50.207 39.932 50.1328C39.9163 50.0586 39.8675 50 39.7855 49.957C39.6605 49.8945 39.3558 49.8633 38.8714 49.8633C38.387 49.8633 37.9515 49.8848 37.5648 49.9277V51.3164C37.5648 52.1797 37.5843 52.8926 37.6234 53.4551C37.9398 53.5254 38.2835 53.5605 38.6546 53.5605C39.0257 53.5605 39.3421 53.5508 39.6038 53.5312C39.8695 53.5117 40.098 53.4727 40.2894 53.4141C40.6683 53.3008 40.9476 53.084 41.1273 52.7637C41.2054 52.623 41.2835 52.5527 41.3616 52.5527C41.4398 52.5527 41.4788 52.6094 41.4788 52.7227C41.4788 52.7695 41.4652 52.8301 41.4378 52.9043C41.4066 53.0059 41.3616 53.1582 41.303 53.3613C41.2445 53.5605 41.1995 53.7051 41.1683 53.7949C41.137 53.8848 41.1019 53.9531 41.0628 54C41.0042 54.0781 40.889 54.1172 40.7171 54.1172C40.5452 54.1172 40.3792 54.1152 40.2191 54.1113C40.0589 54.1113 39.8909 54.1094 39.7152 54.1055C39.512 54.0977 39.1976 54.082 38.7718 54.0586C37.7093 54.0078 37.0863 53.9902 36.9027 54.0059C36.7191 54.0215 36.5804 54.0332 36.4866 54.041C36.3929 54.0527 36.3011 54.0625 36.2113 54.0703C36.1214 54.082 36.0159 54.0879 35.8948 54.0879ZM52.6862 46.2363L52.9323 46.2012C53.0416 46.2012 53.1022 46.291 53.1139 46.4707C53.1256 46.6465 53.1413 46.791 53.1608 46.9043C53.1803 47.0176 53.1998 47.1191 53.2194 47.209C53.2389 47.2988 53.2545 47.375 53.2663 47.4375C53.2819 47.5 53.2897 47.5527 53.2897 47.5957C53.2897 47.6348 53.2663 47.6738 53.2194 47.7129C53.1764 47.748 53.1295 47.7656 53.0788 47.7656C52.9889 47.7656 52.901 47.6699 52.8151 47.4785C52.651 47.1152 52.5143 46.8809 52.4049 46.7754C52.151 46.5488 51.778 46.4355 51.2858 46.4355C50.5983 46.4355 50.1373 46.6406 49.903 47.0508C49.8288 47.1836 49.7916 47.3457 49.7916 47.5371C49.7916 47.7285 49.8366 47.9082 49.9264 48.0762C50.0202 48.2441 50.1608 48.4141 50.3483 48.5859C50.5397 48.7539 50.7819 48.9355 51.0748 49.1309C51.3678 49.3262 51.6823 49.5391 52.0182 49.7695C52.3541 50 52.6159 50.209 52.8034 50.3965C52.9909 50.5801 53.1432 50.7637 53.2604 50.9473C53.483 51.2949 53.5944 51.6328 53.5944 51.9609C53.5944 52.2891 53.5475 52.582 53.4538 52.8398C53.36 53.0938 53.2077 53.3164 52.9967 53.5078C52.5397 53.9336 51.8639 54.1465 50.9694 54.1465C50.5163 54.1465 50.0163 54.0469 49.4694 53.8477C49.3444 53.8047 49.2663 53.7559 49.235 53.7012C49.1998 53.6348 49.1686 53.5098 49.1413 53.3262C49.1139 53.1426 49.0807 52.9766 49.0416 52.8281C49.0065 52.6797 48.9733 52.5469 48.942 52.4297L48.86 52.125C48.8366 52.0352 48.8248 51.9609 48.8248 51.9023C48.8248 51.7617 48.8776 51.6914 48.983 51.6914C49.1237 51.6914 49.2252 51.7988 49.2877 52.0137C49.3971 52.3965 49.4948 52.6445 49.5807 52.7578C49.9127 53.1953 50.2975 53.4805 50.735 53.6133C50.8639 53.6523 51.0358 53.6719 51.2506 53.6719C51.4694 53.6719 51.6823 53.6406 51.8893 53.5781C52.1002 53.5117 52.2741 53.4238 52.4108 53.3145C52.6686 53.1035 52.7975 52.8477 52.7975 52.5469C52.7975 52.2422 52.6998 51.9688 52.5045 51.7266C52.3131 51.4805 52.0807 51.2676 51.8073 51.0879C51.5377 50.9043 51.3346 50.7695 51.1979 50.6836C51.0651 50.5977 50.9401 50.5156 50.8229 50.4375C49.8346 49.7773 49.2506 49.1211 49.0709 48.4688C49.0241 48.2969 49.0006 48.0996 49.0006 47.877C49.0006 47.6543 49.0553 47.4258 49.1647 47.1914C49.2741 46.957 49.4303 46.752 49.6334 46.5762C50.0827 46.1934 50.6627 46.002 51.3737 46.002C51.6979 46.002 51.9577 46.0352 52.153 46.1016C52.4264 46.1914 52.6041 46.2363 52.6862 46.2363ZM61.1455 54.0879C60.8916 54.0879 60.7646 54.0156 60.7646 53.8711C60.7646 53.7578 60.8349 53.7012 60.9755 53.7012L61.2627 53.7305C61.4736 53.7305 61.6201 53.6289 61.7021 53.4258C61.792 53.1992 61.8369 52.7715 61.8369 52.1426L61.8076 48.0059C61.8076 47.3613 61.7724 46.957 61.7021 46.793C61.6357 46.625 61.5654 46.5215 61.4912 46.4824C61.4209 46.4395 61.3349 46.418 61.2334 46.418L60.9463 46.4414C60.8056 46.4414 60.7353 46.3848 60.7353 46.2715C60.7353 46.127 60.8427 46.0547 61.0576 46.0547C61.2724 46.0547 61.4755 46.0703 61.667 46.1016C61.8623 46.1328 62.0654 46.1484 62.2763 46.1484C62.4873 46.1484 62.6884 46.1328 62.8798 46.1016C63.0713 46.0703 63.2724 46.0547 63.4834 46.0547C63.6982 46.0547 63.8056 46.127 63.8056 46.2715C63.8056 46.3848 63.7353 46.4414 63.5947 46.4414L63.3134 46.418C63.1025 46.418 62.956 46.5195 62.874 46.7227C62.7841 46.9492 62.7392 47.377 62.7392 48.0059L62.7685 52.1426C62.7685 52.7715 62.8056 53.1719 62.8798 53.3438C62.958 53.5156 63.0361 53.623 63.1142 53.666C63.1923 53.709 63.2822 53.7305 63.3838 53.7305L63.665 53.7012C63.8056 53.7012 63.8759 53.7578 63.8759 53.8711C63.8759 54.0156 63.7509 54.0879 63.5009 54.0879C63.372 54.0879 63.2353 54.0762 63.0908 54.0527C62.6025 53.9746 62.1865 53.9609 61.8427 54.0117C61.5029 54.0625 61.2705 54.0879 61.1455 54.0879ZM78.6809 50.2617C78.8333 50.2617 78.9095 50.3184 78.9095 50.4316C78.9095 50.4863 78.8919 50.5293 78.8567 50.5605C78.8255 50.5879 78.7727 50.6172 78.6985 50.6484C78.6282 50.6758 78.5735 50.7129 78.5345 50.7598C78.4993 50.8027 78.47 50.8691 78.4466 50.959C78.4075 51.1309 78.388 51.3379 78.388 51.5801C78.388 51.8223 78.3899 51.9824 78.3938 52.0605C78.3977 52.1348 78.4036 52.2109 78.4114 52.2891C78.4309 52.5742 78.4505 52.7617 78.47 52.8516C78.4895 52.9375 78.4993 53.0215 78.4993 53.1035C78.4993 53.1855 78.4485 53.2734 78.347 53.3672C78.2454 53.4609 78.1106 53.5488 77.9427 53.6309C77.7747 53.7129 77.5813 53.7871 77.3626 53.8535C77.1438 53.916 76.9192 53.9707 76.6888 54.0176C76.2044 54.1152 75.7591 54.1641 75.3528 54.1641C73.9505 54.1641 72.845 53.7637 72.0364 52.9629C71.2981 52.2285 70.929 51.3008 70.929 50.1797C70.929 48.918 71.3372 47.9043 72.1536 47.1387C72.9778 46.3691 74.0696 45.9844 75.429 45.9844C76.4368 45.9844 77.2395 46.1055 77.8372 46.3477C77.9544 46.3984 78.0345 46.4512 78.0774 46.5059C78.1595 46.6113 78.2063 46.7754 78.218 46.998C78.2337 47.2207 78.2434 47.375 78.2473 47.4609C78.263 47.6562 78.2708 47.7773 78.2708 47.8242C78.2708 47.9766 78.218 48.0527 78.1126 48.0527C78.011 48.0527 77.9309 47.957 77.8723 47.7656C77.8177 47.5703 77.7063 47.3867 77.5384 47.2148C77.3704 47.043 77.1692 46.8984 76.9348 46.7812C76.4661 46.5469 75.9466 46.4297 75.3763 46.4297C74.8059 46.4297 74.3216 46.5078 73.9231 46.6641C73.5286 46.8164 73.1927 47.0371 72.9153 47.3262C72.3333 47.9277 72.0423 48.7402 72.0423 49.7637C72.0423 50.8574 72.3763 51.7832 73.0442 52.541C73.3606 52.8965 73.7356 53.1777 74.1692 53.3848C74.6067 53.5879 75.0833 53.6895 75.5989 53.6895C76.4153 53.6895 76.9485 53.5352 77.1985 53.2266C77.3587 53.0234 77.4388 52.7461 77.4388 52.3945V51.123C77.4388 50.9395 77.3958 50.8262 77.3098 50.7832C77.1966 50.7246 77.0403 50.6953 76.8411 50.6953C76.5052 50.6953 76.3372 50.6211 76.3372 50.4727C76.3372 50.3242 76.47 50.25 76.7356 50.25L77.9134 50.3262L78.6809 50.2617ZM86.2906 54.0879C86.0367 54.0879 85.9098 54.0156 85.9098 53.8711C85.9098 53.7578 85.9801 53.7012 86.1207 53.7012L86.4078 53.7305C86.6422 53.7305 86.7984 53.5996 86.8766 53.3379C86.9469 53.1152 86.982 52.7168 86.982 52.1426V48.0176C86.982 47.4395 86.9547 47.0645 86.9 46.8926C86.8453 46.7168 86.7789 46.5977 86.7008 46.5352C86.6266 46.4688 86.5289 46.4355 86.4078 46.4355L86.1207 46.4648C85.9801 46.4648 85.9098 46.4062 85.9098 46.2891C85.9098 46.1367 86.0367 46.0605 86.2906 46.0605L87.0582 46.1484C87.2223 46.1484 87.3688 46.1367 87.4977 46.1133L92.8941 52.3887V48.0059C92.8941 47.4355 92.8629 47.0605 92.8004 46.8809C92.7418 46.7012 92.6734 46.5801 92.5953 46.5176C92.5172 46.4512 92.4156 46.418 92.2906 46.418L92.0035 46.4414C91.8629 46.4414 91.7926 46.3848 91.7926 46.2715C91.7926 46.127 91.9195 46.0547 92.1734 46.0547C92.2711 46.0547 92.402 46.0684 92.566 46.0957C92.773 46.1309 92.9605 46.1484 93.1285 46.1484C93.2965 46.1484 93.4605 46.1328 93.6207 46.1016C93.7809 46.0703 93.9684 46.0547 94.1832 46.0547C94.398 46.0547 94.5055 46.127 94.5055 46.2715C94.5055 46.3848 94.4352 46.4414 94.2945 46.4414L94.0074 46.418C93.7691 46.418 93.6109 46.5488 93.5328 46.8105C93.4664 47.0176 93.4332 47.416 93.4332 48.0059V53.9238C93.4332 54.0566 93.4215 54.1445 93.398 54.1875C93.3746 54.2305 93.3375 54.252 93.2867 54.252C93.2164 54.252 93.1051 54.1699 92.9527 54.0059L87.5504 47.748V52.1426C87.5504 52.7324 87.5758 53.1133 87.6266 53.2852C87.6813 53.4531 87.7457 53.5703 87.8199 53.6367C87.898 53.6992 87.9996 53.7305 88.1246 53.7305L88.4059 53.7012C88.5465 53.7012 88.6168 53.7578 88.6168 53.8711C88.6168 54.0156 88.5035 54.0879 88.277 54.0879C88.0543 54.0879 87.8551 54.0723 87.6793 54.041C87.5074 54.0137 87.3395 54 87.1754 54C87.0113 54 86.8492 54.0137 86.6891 54.041C86.5328 54.0723 86.4 54.0879 86.2906 54.0879ZM114.606 46.2363L114.852 46.2012C114.961 46.2012 115.022 46.291 115.033 46.4707C115.045 46.6465 115.061 46.791 115.08 46.9043C115.1 47.0176 115.119 47.1191 115.139 47.209C115.158 47.2988 115.174 47.375 115.186 47.4375C115.201 47.5 115.209 47.5527 115.209 47.5957C115.209 47.6348 115.186 47.6738 115.139 47.7129C115.096 47.748 115.049 47.7656 114.998 47.7656C114.908 47.7656 114.821 47.6699 114.735 47.4785C114.571 47.1152 114.434 46.8809 114.324 46.7754C114.071 46.5488 113.698 46.4355 113.205 46.4355C112.518 46.4355 112.057 46.6406 111.823 47.0508C111.748 47.1836 111.711 47.3457 111.711 47.5371C111.711 47.7285 111.756 47.9082 111.846 48.0762C111.94 48.2441 112.08 48.4141 112.268 48.5859C112.459 48.7539 112.701 48.9355 112.994 49.1309C113.287 49.3262 113.602 49.5391 113.938 49.7695C114.274 50 114.535 50.209 114.723 50.3965C114.91 50.5801 115.063 50.7637 115.18 50.9473C115.403 51.2949 115.514 51.6328 115.514 51.9609C115.514 52.2891 115.467 52.582 115.373 52.8398C115.28 53.0938 115.127 53.3164 114.916 53.5078C114.459 53.9336 113.783 54.1465 112.889 54.1465C112.436 54.1465 111.936 54.0469 111.389 53.8477C111.264 53.8047 111.186 53.7559 111.155 53.7012C111.119 53.6348 111.088 53.5098 111.061 53.3262C111.033 53.1426 111 52.9766 110.961 52.8281C110.926 52.6797 110.893 52.5469 110.862 52.4297L110.78 52.125C110.756 52.0352 110.744 51.9609 110.744 51.9023C110.744 51.7617 110.797 51.6914 110.903 51.6914C111.043 51.6914 111.145 51.7988 111.207 52.0137C111.317 52.3965 111.414 52.6445 111.5 52.7578C111.832 53.1953 112.217 53.4805 112.655 53.6133C112.783 53.6523 112.955 53.6719 113.17 53.6719C113.389 53.6719 113.602 53.6406 113.809 53.5781C114.02 53.5117 114.194 53.4238 114.33 53.3145C114.588 53.1035 114.717 52.8477 114.717 52.5469C114.717 52.2422 114.619 51.9688 114.424 51.7266C114.233 51.4805 114 51.2676 113.727 51.0879C113.457 50.9043 113.254 50.7695 113.117 50.6836C112.985 50.5977 112.86 50.5156 112.742 50.4375C111.754 49.7773 111.17 49.1211 110.99 48.4688C110.944 48.2969 110.92 48.0996 110.92 47.877C110.92 47.6543 110.975 47.4258 111.084 47.1914C111.194 46.957 111.35 46.752 111.553 46.5762C112.002 46.1934 112.582 46.002 113.293 46.002C113.617 46.002 113.877 46.0352 114.073 46.1016C114.346 46.1914 114.524 46.2363 114.606 46.2363ZM124.612 54.0879C124.358 54.0879 124.231 54.0156 124.231 53.8711C124.231 53.7578 124.301 53.7012 124.442 53.7012L124.729 53.7305C124.963 53.7305 125.12 53.5996 125.198 53.3379C125.268 53.1152 125.303 52.7168 125.303 52.1426V46.6641H125.145C124.461 46.6641 123.917 46.7344 123.51 46.875C123.229 46.9766 123.038 47.1504 122.936 47.3965C122.862 47.5762 122.784 47.666 122.702 47.666C122.588 47.666 122.532 47.5996 122.532 47.4668C122.532 47.4277 122.54 47.3828 122.555 47.332C122.575 47.2812 122.596 47.2207 122.62 47.1504C122.682 46.9629 122.719 46.7676 122.731 46.5645C122.743 46.3613 122.764 46.2266 122.795 46.1602C122.831 46.0898 122.878 46.0547 122.936 46.0547C122.995 46.0547 123.047 46.0605 123.094 46.0723C123.141 46.0801 123.21 46.0898 123.299 46.1016C123.534 46.1328 123.829 46.1484 124.184 46.1484H127.899C128.188 46.1484 128.397 46.1328 128.526 46.1016C128.659 46.0703 128.754 46.0547 128.813 46.0547C128.942 46.0547 129.006 46.1152 129.006 46.2363C129.006 46.2988 128.995 46.373 128.971 46.459C128.913 46.6504 128.874 46.8164 128.854 46.957C128.838 47.0938 128.823 47.207 128.807 47.2969C128.792 47.3828 128.774 47.4512 128.754 47.502C128.723 47.5879 128.676 47.6309 128.614 47.6309C128.551 47.6309 128.51 47.6094 128.491 47.5664C128.475 47.5195 128.458 47.4316 128.438 47.3027C128.419 47.1738 128.385 47.0684 128.338 46.9863C128.292 46.9043 128.229 46.8398 128.151 46.793C128.014 46.707 127.792 46.6641 127.483 46.6641H126.223V52.1426C126.223 52.7324 126.249 53.1133 126.299 53.2852C126.354 53.4531 126.419 53.5703 126.493 53.6367C126.571 53.6992 126.672 53.7305 126.797 53.7305L127.079 53.7012C127.219 53.7012 127.29 53.7578 127.29 53.8711C127.29 54.0156 127.165 54.0879 126.915 54.0879C126.786 54.0879 126.649 54.0762 126.504 54.0527C126.036 53.9785 125.633 53.9648 125.297 54.0117C124.965 54.0625 124.737 54.0879 124.612 54.0879ZM138.679 46.4414L138.397 46.418C138.159 46.418 137.997 46.5488 137.911 46.8105C137.837 47.041 137.8 47.4395 137.8 48.0059V50.9004C137.8 51.4434 137.839 51.834 137.917 52.0723C137.995 52.3066 138.104 52.5215 138.245 52.7168C138.39 52.9121 138.557 53.0781 138.749 53.2148C139.136 53.4883 139.571 53.625 140.056 53.625C140.544 53.625 140.946 53.5684 141.263 53.4551C141.579 53.3379 141.831 53.1641 142.018 52.9336C142.366 52.5117 142.54 51.8242 142.54 50.8711L142.528 48.0059C142.528 47.4316 142.501 47.0566 142.446 46.8809C142.391 46.7012 142.325 46.5801 142.247 46.5176C142.173 46.4512 142.075 46.418 141.954 46.418L141.667 46.4414C141.526 46.4414 141.456 46.3848 141.456 46.2715C141.456 46.127 141.563 46.0547 141.778 46.0547C141.993 46.0547 142.181 46.0703 142.341 46.1016C142.501 46.1328 142.669 46.1484 142.845 46.1484L143.811 46.0547C144.061 46.0547 144.186 46.127 144.186 46.2715C144.186 46.3848 144.116 46.4414 143.975 46.4414L143.694 46.418C143.456 46.418 143.298 46.5488 143.22 46.8105C143.153 47.0371 143.12 47.4355 143.12 48.0059L143.108 51.1699C143.108 52.041 142.831 52.7539 142.276 53.3086C141.718 53.8672 140.974 54.1465 140.044 54.1465C139.032 54.1465 138.233 53.8672 137.647 53.3086C137.05 52.7305 136.751 51.9277 136.751 50.9004V48.0059C136.751 47.4395 136.722 47.0664 136.663 46.8867C136.604 46.7031 136.536 46.5801 136.458 46.5176C136.38 46.4512 136.278 46.418 136.153 46.418L135.866 46.4414C135.725 46.4414 135.655 46.3848 135.655 46.2715C135.655 46.127 135.763 46.0547 135.977 46.0547C136.196 46.0547 136.409 46.0703 136.616 46.1016C136.823 46.1328 137.04 46.1484 137.266 46.1484C137.497 46.1484 137.718 46.1328 137.929 46.1016C138.143 46.0703 138.356 46.0547 138.567 46.0547C138.782 46.0547 138.89 46.127 138.89 46.2715C138.89 46.3848 138.819 46.4414 138.679 46.4414ZM151.298 54.0879C151.044 54.0879 150.917 54.0156 150.917 53.8711C150.917 53.7578 150.988 53.7012 151.128 53.7012L151.415 53.7305C151.65 53.7305 151.808 53.5996 151.89 53.3379C151.956 53.1152 151.989 52.7168 151.989 52.1426V48.0059C151.989 47.4316 151.962 47.0566 151.907 46.8809C151.853 46.7012 151.786 46.5801 151.708 46.5176C151.634 46.4512 151.536 46.418 151.415 46.418L151.128 46.4414C150.988 46.4414 150.917 46.3848 150.917 46.2715C150.917 46.127 151.025 46.0547 151.239 46.0547C151.454 46.0547 151.642 46.0703 151.802 46.1016C151.962 46.1328 152.12 46.1484 152.277 46.1484C152.691 46.1484 153.034 46.1289 153.308 46.0898C153.722 46.0312 154.196 46.002 154.732 46.002C155.271 46.002 155.806 46.0977 156.337 46.2891C156.872 46.4805 157.331 46.752 157.714 47.1035C158.53 47.8496 158.939 48.8301 158.939 50.0449C158.939 51.1973 158.538 52.1562 157.738 52.9219C156.909 53.7188 155.823 54.1172 154.48 54.1172C154.155 54.1172 153.841 54.1035 153.536 54.0762C152.97 54.0254 152.56 54 152.306 54L151.298 54.0879ZM152.909 51.2988C152.909 51.9941 152.927 52.6406 152.962 53.2383C153.482 53.5078 154.066 53.6426 154.714 53.6426C155.187 53.6426 155.677 53.5312 156.185 53.3086C156.989 52.957 157.515 52.3281 157.761 51.4219C157.851 51.1016 157.896 50.6875 157.896 50.1797C157.896 49.668 157.808 49.1738 157.632 48.6973C157.46 48.2168 157.218 47.8125 156.905 47.4844C156.269 46.8086 155.411 46.4707 154.333 46.4707C153.564 46.4707 153.122 46.5723 153.009 46.7754C152.95 46.8848 152.919 47.0098 152.915 47.1504C152.911 47.2871 152.909 47.4219 152.909 47.5547V51.2988ZM166.566 54.0879C166.312 54.0879 166.185 54.0156 166.185 53.8711C166.185 53.7578 166.255 53.7012 166.396 53.7012L166.683 53.7305C166.894 53.7305 167.041 53.6289 167.123 53.4258C167.212 53.1992 167.257 52.7715 167.257 52.1426L167.228 48.0059C167.228 47.3613 167.193 46.957 167.123 46.793C167.056 46.625 166.986 46.5215 166.912 46.4824C166.841 46.4395 166.755 46.418 166.654 46.418L166.367 46.4414C166.226 46.4414 166.156 46.3848 166.156 46.2715C166.156 46.127 166.263 46.0547 166.478 46.0547C166.693 46.0547 166.896 46.0703 167.087 46.1016C167.283 46.1328 167.486 46.1484 167.697 46.1484C167.908 46.1484 168.109 46.1328 168.3 46.1016C168.492 46.0703 168.693 46.0547 168.904 46.0547C169.119 46.0547 169.226 46.127 169.226 46.2715C169.226 46.3848 169.156 46.4414 169.015 46.4414L168.734 46.418C168.523 46.418 168.376 46.5195 168.294 46.7227C168.205 46.9492 168.16 47.377 168.16 48.0059L168.189 52.1426C168.189 52.7715 168.226 53.1719 168.3 53.3438C168.378 53.5156 168.457 53.623 168.535 53.666C168.613 53.709 168.703 53.7305 168.804 53.7305L169.085 53.7012C169.226 53.7012 169.296 53.7578 169.296 53.8711C169.296 54.0156 169.171 54.0879 168.921 54.0879C168.792 54.0879 168.656 54.0762 168.511 54.0527C168.023 53.9746 167.607 53.9609 167.263 54.0117C166.923 54.0625 166.691 54.0879 166.566 54.0879ZM176.449 50.0332C176.449 49.4434 176.558 48.9023 176.777 48.4102C177 47.9141 177.299 47.4883 177.674 47.1328C178.053 46.7734 178.49 46.4961 178.986 46.3008C179.482 46.1016 180.017 46.002 180.592 46.002C181.166 46.002 181.699 46.1074 182.191 46.3184C182.683 46.5254 183.105 46.8125 183.457 47.1797C184.195 47.957 184.564 48.9434 184.564 50.1387C184.564 51.2715 184.183 52.2188 183.422 52.9805C182.644 53.7578 181.656 54.1465 180.457 54.1465C179.285 54.1465 178.32 53.7539 177.562 52.9688C176.82 52.1953 176.449 51.2168 176.449 50.0332ZM177.451 49.6992C177.451 50.207 177.533 50.707 177.697 51.1992C177.865 51.6875 178.101 52.1133 178.406 52.4766C179.058 53.2656 179.883 53.6602 180.879 53.6602C181.648 53.6602 182.279 53.3711 182.771 52.793C183.279 52.1992 183.533 51.418 183.533 50.4492C183.533 49.3047 183.226 48.3555 182.613 47.6016C182.004 46.8594 181.232 46.4883 180.299 46.4883C179.529 46.4883 178.867 46.7812 178.312 47.3672C177.738 47.9766 177.451 48.7539 177.451 49.6992Z" fill="white"/>
<path d="M7.42188 13.0625C7.64062 13.1458 7.93229 13.3594 8.29688 13.7031C8.67188 14.0365 9.09375 14.4635 9.5625 14.9844C10.0417 15.5052 10.5677 16.0938 11.1406 16.75C11.724 17.4062 12.3385 18.0833 12.9844 18.7812C13.4635 19.3021 13.9375 19.8333 14.4062 20.375C14.8854 20.9062 15.3438 21.4219 15.7812 21.9219C16.2188 22.4219 16.6302 22.8906 17.0156 23.3281C17.4115 23.7656 17.7656 24.151 18.0781 24.4844C18.401 24.8073 18.6823 25.0625 18.9219 25.25C19.1615 25.4375 19.349 25.5312 19.4844 25.5312C19.5677 25.5312 19.6406 25.4427 19.7031 25.2656C19.7656 25.0885 19.8177 24.8542 19.8594 24.5625C19.9115 24.2708 19.9531 23.9427 19.9844 23.5781C20.0156 23.2135 20.0417 22.8438 20.0625 22.4688C20.0833 22.0938 20.099 21.7292 20.1094 21.375C20.1198 21.0208 20.125 20.7135 20.125 20.4531C20.125 20.099 20.1146 19.7031 20.0938 19.2656C20.0833 18.8281 20.0625 18.4062 20.0312 18C20 17.5833 19.9531 17.2083 19.8906 16.875C19.8385 16.5312 19.7708 16.2708 19.6875 16.0938C19.5625 15.8438 19.4219 15.6354 19.2656 15.4688C19.1094 15.3021 18.9167 15.1667 18.6875 15.0625C18.4583 14.9479 18.1823 14.8594 17.8594 14.7969C17.5365 14.7344 17.1406 14.6771 16.6719 14.625C16.3698 14.5938 16.1615 14.5417 16.0469 14.4688C15.9323 14.3958 15.875 14.2865 15.875 14.1406C15.875 13.9948 15.9323 13.901 16.0469 13.8594C16.1615 13.8177 16.2865 13.7969 16.4219 13.7969C16.526 13.7969 16.6823 13.8073 16.8906 13.8281C17.1094 13.8385 17.3646 13.8542 17.6562 13.875C17.9479 13.8854 18.2604 13.8958 18.5938 13.9062C18.9375 13.9167 19.2865 13.9219 19.6406 13.9219C20.2135 13.9219 20.7812 13.8802 21.3438 13.7969C21.9062 13.7135 22.4323 13.625 22.9219 13.5312C23.4115 13.4271 23.849 13.3333 24.2344 13.25C24.6198 13.1667 24.9167 13.125 25.125 13.125C25.4375 13.125 25.5938 13.25 25.5938 13.5C25.5938 13.6667 25.526 13.7865 25.3906 13.8594C25.2656 13.9323 25.1302 13.9844 24.9844 14.0156C24.7969 14.0573 24.625 14.0938 24.4688 14.125C24.3125 14.1458 24.1615 14.1719 24.0156 14.2031C23.8698 14.2344 23.7188 14.276 23.5625 14.3281C23.4062 14.3698 23.2344 14.4271 23.0469 14.5C22.8906 14.5521 22.7344 14.6302 22.5781 14.7344C22.4323 14.8385 22.2917 14.9792 22.1562 15.1562C22.0208 15.3229 21.8958 15.5365 21.7812 15.7969C21.6771 16.0469 21.5938 16.349 21.5312 16.7031C21.4688 17.0781 21.4115 17.6042 21.3594 18.2812C21.3177 18.9479 21.276 19.6979 21.2344 20.5312C21.1927 21.3542 21.1562 22.224 21.125 23.1406C21.1042 24.0469 21.0781 24.9271 21.0469 25.7812C21.026 26.625 21.0052 27.4115 20.9844 28.1406C20.974 28.8594 20.9635 29.4427 20.9531 29.8906C20.9219 31.5469 20.8698 32.7708 20.7969 33.5625C20.7344 34.3542 20.6302 34.75 20.4844 34.75C20.401 34.75 20.2396 34.6458 20 34.4375C19.7708 34.2188 19.4948 33.9323 19.1719 33.5781C18.849 33.2135 18.4896 32.7969 18.0938 32.3281C17.6979 31.849 17.2917 31.3542 16.875 30.8438C16.4583 30.3229 16.0417 29.7969 15.625 29.2656C15.2083 28.724 14.8177 28.2188 14.4531 27.75C14.0885 27.2708 13.7552 26.8385 13.4531 26.4531C13.1615 26.0573 12.9323 25.7396 12.7656 25.5C10.724 22.6875 9.15625 20.5625 8.0625 19.125C6.97917 17.6771 6.30729 16.9531 6.04688 16.9531C5.99479 16.9531 5.95312 17.1094 5.92188 17.4219C5.90104 17.7344 5.88021 18.1562 5.85938 18.6875C5.84896 19.2188 5.83854 19.8385 5.82812 20.5469C5.82812 21.2552 5.82812 22.0104 5.82812 22.8125C5.82812 23.8438 5.82812 24.9115 5.82812 26.0156C5.83854 27.1094 5.84375 28.1458 5.84375 29.125C5.84375 30.1042 5.84375 30.974 5.84375 31.7344C5.85417 32.4844 5.85938 33.0312 5.85938 33.375C5.85938 33.9896 5.86458 34.6198 5.875 35.2656C5.89583 35.9115 5.92708 36.5208 5.96875 37.0938C6.02083 37.6771 6.08854 38.2031 6.17188 38.6719C6.25521 39.151 6.36458 39.5208 6.5 39.7812C6.6875 40.1458 6.89062 40.4531 7.10938 40.7031C7.32812 40.9531 7.55729 41.1667 7.79688 41.3438C8.04688 41.5208 8.30729 41.6667 8.57812 41.7812C8.84896 41.8958 9.125 41.9948 9.40625 42.0781C9.64583 42.1615 9.82292 42.2344 9.9375 42.2969C10.0521 42.3594 10.1094 42.4479 10.1094 42.5625C10.1094 42.75 9.94792 42.8438 9.625 42.8438C9.4375 42.8438 9.20833 42.8125 8.9375 42.75C8.66667 42.6875 8.36979 42.6094 8.04688 42.5156C7.73438 42.4323 7.40104 42.3385 7.04688 42.2344C6.69271 42.1302 6.33854 42.0365 5.98438 41.9531C5.58854 41.8594 5.19271 41.7865 4.79688 41.7344C4.40104 41.6823 4.01562 41.6562 3.64062 41.6562C3.39062 41.6562 3.13021 41.6615 2.85938 41.6719C2.59896 41.6927 2.35417 41.7083 2.125 41.7188C1.89583 41.7396 1.69792 41.7552 1.53125 41.7656C1.36458 41.7865 1.25 41.7969 1.1875 41.7969C0.989583 41.7969 0.791667 41.7812 0.59375 41.75C0.40625 41.7188 0.3125 41.6146 0.3125 41.4375C0.3125 41.3125 0.380208 41.2292 0.515625 41.1875C0.651042 41.1458 0.833333 41.125 1.0625 41.125C1.36458 41.125 1.70312 41.0833 2.07812 41C2.46354 40.9271 2.81771 40.7865 3.14062 40.5781C3.57812 40.2865 3.91146 39.8958 4.14062 39.4062C4.36979 38.9271 4.52604 38.3125 4.60938 37.5625C4.65104 37.2083 4.68229 36.8385 4.70312 36.4531C4.73438 36.0781 4.75521 35.6615 4.76562 35.2031C4.78646 34.7344 4.80208 34.2031 4.8125 33.6094C4.82292 33.0156 4.82812 32.3281 4.82812 31.5469C4.82812 31.2135 4.82292 30.8594 4.8125 30.4844C4.80208 30.099 4.79688 29.6979 4.79688 29.2812C4.79688 29 4.79167 28.6094 4.78125 28.1094C4.78125 27.599 4.78125 27.0208 4.78125 26.375C4.78125 25.7292 4.77604 25.0365 4.76562 24.2969C4.75521 23.5469 4.73958 22.7969 4.71875 22.0469C4.69792 21.2969 4.67188 20.5625 4.64062 19.8438C4.60938 19.1146 4.56771 18.4479 4.51562 17.8438C4.46354 17.2292 4.40104 16.6979 4.32812 16.25C4.25521 15.8021 4.16667 15.474 4.0625 15.2656C3.94792 15.0365 3.79167 14.8594 3.59375 14.7344C3.39583 14.6094 3.16146 14.5156 2.89062 14.4531C2.61979 14.3906 2.3125 14.3542 1.96875 14.3438C1.63542 14.3229 1.27604 14.3073 0.890625 14.2969C0.640625 14.2969 0.427083 14.2656 0.25 14.2031C0.0833333 14.1302 0 13.9844 0 13.7656C0 13.599 0.0572917 13.4792 0.171875 13.4062C0.286458 13.3229 0.432292 13.2812 0.609375 13.2812H1.95312C2.58854 13.2812 3.39062 13.25 4.35938 13.1875C4.80729 13.1562 5.25 13.1094 5.6875 13.0469C6.13542 12.9844 6.52083 12.9531 6.84375 12.9531C6.95833 12.9531 7.06771 12.9635 7.17188 12.9844C7.27604 12.9948 7.35938 13.0208 7.42188 13.0625ZM37.375 8.92188C37.7292 8.92188 38.0052 8.94271 38.2031 8.98438C38.4115 9.01562 38.5677 9.05729 38.6719 9.10938C38.7865 9.16146 38.8594 9.22396 38.8906 9.29688C38.9219 9.35938 38.9375 9.42708 38.9375 9.5C38.9375 9.67708 38.8229 9.81771 38.5938 9.92188C38.375 10.026 38.0104 10.0781 37.5 10.0781C36.9792 10.0781 36.4948 10.0938 36.0469 10.125C35.599 10.1562 35.1771 10.2292 34.7812 10.3438C34.4271 10.4375 34.1042 10.5781 33.8125 10.7656C33.5208 10.9427 33.2552 11.1823 33.0156 11.4844C32.7865 11.7865 32.5833 12.1562 32.4062 12.5938C32.2292 13.0312 32.0781 13.5573 31.9531 14.1719C31.8177 14.8385 31.6771 15.6979 31.5312 16.75C31.3958 17.8021 31.2552 18.9688 31.1094 20.25C30.974 21.5208 30.8438 22.8646 30.7188 24.2812C30.5938 25.6979 30.4844 27.1042 30.3906 28.5C30.2969 29.8958 30.2188 31.2396 30.1562 32.5312C30.1042 33.8229 30.0781 34.9792 30.0781 36C30.0781 36.5833 30.125 37.0417 30.2188 37.375C30.3229 37.7188 30.4479 37.9792 30.5938 38.1562C30.75 38.3333 30.9115 38.4531 31.0781 38.5156C31.2448 38.5781 31.3906 38.625 31.5156 38.6562C31.8073 38.7396 32.1406 38.7865 32.5156 38.7969C32.8906 38.8073 33.2083 38.8125 33.4688 38.8125C33.9792 38.8125 34.2344 38.9531 34.2344 39.2344C34.2344 39.3594 34.1719 39.474 34.0469 39.5781C33.9323 39.6927 33.6719 39.75 33.2656 39.75C33.0573 39.75 32.8177 39.7448 32.5469 39.7344C32.2865 39.724 31.9948 39.7188 31.6719 39.7188C31.224 39.7188 30.7188 39.7344 30.1562 39.7656C29.5938 39.8073 28.9688 39.875 28.2812 39.9688C27.6042 40.0625 26.9375 40.2135 26.2812 40.4219C25.625 40.6302 25.0104 40.8385 24.4375 41.0469C23.8646 41.2552 23.3542 41.4375 22.9062 41.5938C22.4583 41.75 22.1042 41.8281 21.8438 41.8281C21.5729 41.8281 21.4375 41.7083 21.4375 41.4688C21.4375 41.2917 21.5625 41.1562 21.8125 41.0625C21.8958 41.0312 22.1094 40.9531 22.4531 40.8281C22.7969 40.7135 23.1823 40.5781 23.6094 40.4219C24.0365 40.2656 24.4531 40.1042 24.8594 39.9375C25.2656 39.7812 25.5729 39.6406 25.7812 39.5156C26.0938 39.3385 26.349 39.1406 26.5469 38.9219C26.7552 38.7031 26.9219 38.4583 27.0469 38.1875C27.1719 37.9271 27.2604 37.6406 27.3125 37.3281C27.375 37.0156 27.4219 36.6771 27.4531 36.3125C27.474 35.8958 27.4948 35.3021 27.5156 34.5312C27.5365 33.7604 27.5521 32.875 27.5625 31.875C27.5833 30.875 27.5938 29.7917 27.5938 28.625C27.6042 27.4583 27.6094 26.2708 27.6094 25.0625C27.6094 24.0833 27.6042 23.1146 27.5938 22.1562C27.5938 21.1875 27.5885 20.2708 27.5781 19.4062C27.5781 18.5312 27.5677 17.7292 27.5469 17C27.5365 16.2708 27.526 15.6406 27.5156 15.1094C27.4948 14.3281 27.4375 13.6927 27.3438 13.2031C27.2604 12.7031 27.151 12.3021 27.0156 12C26.8802 11.6875 26.724 11.4479 26.5469 11.2812C26.3802 11.1146 26.1979 10.9688 26 10.8438C25.6875 10.6354 25.2656 10.4844 24.7344 10.3906C24.2135 10.2865 23.6875 10.2344 23.1562 10.2344C22.9167 10.2344 22.7448 10.1927 22.6406 10.1094C22.5365 10.0156 22.4844 9.91146 22.4844 9.79688C22.4844 9.73438 22.4948 9.67708 22.5156 9.625C22.5365 9.5625 22.5781 9.50521 22.6406 9.45312C22.7031 9.40104 22.8021 9.35938 22.9375 9.32812C23.0625 9.29688 23.2344 9.28125 23.4531 9.28125C23.7344 9.28125 24.099 9.29688 24.5469 9.32812C25.0052 9.35938 25.5052 9.39062 26.0469 9.42188C26.5885 9.45312 27.1615 9.48438 27.7656 9.51562C28.3698 9.54688 28.9688 9.5625 29.5625 9.5625C30.1979 9.5625 30.8542 9.53125 31.5312 9.46875C32.2083 9.39583 32.8854 9.32292 33.5625 9.25C34.2396 9.16667 34.901 9.09375 35.5469 9.03125C36.1927 8.95833 36.8021 8.92188 37.375 8.92188ZM47.625 15.1406C48.4583 15.1406 49.1875 15.1927 49.8125 15.2969C50.4375 15.401 51.0052 15.5208 51.5156 15.6562C52.0365 15.7812 52.5208 15.8958 52.9688 16C53.4167 16.1042 53.8802 16.1562 54.3594 16.1562C55.349 16.1562 56.2865 15.6979 57.1719 14.7812C57.4219 14.5208 57.6354 14.2604 57.8125 14C58 13.7396 58.1667 13.5104 58.3125 13.3125C58.4583 13.1042 58.5938 12.9375 58.7188 12.8125C58.8542 12.6771 58.9896 12.6094 59.125 12.6094C59.3542 12.6094 59.4688 12.7344 59.4688 12.9844C59.4688 13.1406 59.3594 13.3906 59.1406 13.7344C58.9219 14.0781 58.6615 14.4688 58.3594 14.9062C58.0573 15.3438 57.7448 15.7969 57.4219 16.2656C57.1094 16.7344 56.8542 17.1667 56.6562 17.5625C56.4583 17.9688 56.2865 18.3333 56.1406 18.6562C56.0052 18.9792 55.875 19.3021 55.75 19.625C55.625 19.9375 55.5 20.2656 55.375 20.6094C55.25 20.9427 55.1094 21.3281 54.9531 21.7656C54.8281 22.1302 54.6927 22.4219 54.5469 22.6406C54.401 22.8594 54.2292 22.9688 54.0312 22.9688C53.7812 22.9688 53.6562 22.7604 53.6562 22.3438C53.6562 22.1771 53.6823 21.9323 53.7344 21.6094C53.7865 21.276 53.8125 20.9115 53.8125 20.5156C53.8125 19.0156 53.2917 17.875 52.25 17.0938C51.2083 16.3021 49.724 15.9062 47.7969 15.9062C47.2656 15.9062 46.7031 15.9792 46.1094 16.125C45.526 16.2708 44.9479 16.5104 44.375 16.8438C43.8021 17.1667 43.2552 17.5938 42.7344 18.125C42.2135 18.6458 41.7552 19.2917 41.3594 20.0625C40.974 20.8229 40.6615 21.7188 40.4219 22.75C40.1927 23.7708 40.0781 24.9427 40.0781 26.2656C40.0781 27.0469 40.1302 27.7917 40.2344 28.5C40.3385 29.2083 40.4844 29.8698 40.6719 30.4844C40.8594 31.099 41.0781 31.6562 41.3281 32.1562C41.5781 32.6562 41.8542 33.0833 42.1562 33.4375C42.5417 33.8958 42.9531 34.2656 43.3906 34.5469C43.8281 34.8281 44.2656 35.0469 44.7031 35.2031C45.151 35.3594 45.5833 35.4688 46 35.5312C46.4167 35.5833 46.8021 35.6094 47.1562 35.6094C47.8021 35.6094 48.3802 35.5521 48.8906 35.4375C49.4115 35.3125 49.8698 35.1562 50.2656 34.9688C50.6615 34.7708 50.9948 34.5521 51.2656 34.3125C51.5469 34.0625 51.776 33.8125 51.9531 33.5625C52.099 33.3646 52.224 33.1354 52.3281 32.875C52.4323 32.6146 52.5156 32.349 52.5781 32.0781C52.651 31.7969 52.7031 31.5208 52.7344 31.25C52.7656 30.9688 52.7812 30.7083 52.7812 30.4688C52.7812 30.0625 52.7552 29.6719 52.7031 29.2969C52.6615 28.9219 52.5625 28.5938 52.4062 28.3125C52.2604 28.0312 52.0521 27.8073 51.7812 27.6406C51.5104 27.474 51.151 27.3906 50.7031 27.3906C50.1094 27.3906 49.5677 27.4323 49.0781 27.5156C48.599 27.599 48.0938 27.6406 47.5625 27.6406C47.3438 27.6406 47.1719 27.6042 47.0469 27.5312C46.9219 27.4583 46.8594 27.349 46.8594 27.2031C46.8594 27.0677 46.9115 26.9479 47.0156 26.8438C47.1198 26.7396 47.349 26.6875 47.7031 26.6875C48.276 26.6875 49.0156 26.651 49.9219 26.5781C50.8385 26.4948 51.9323 26.3385 53.2031 26.1094C53.901 25.9844 54.5 25.8542 55 25.7188C55.5104 25.5833 55.9427 25.4635 56.2969 25.3594C56.6615 25.2448 56.9688 25.1562 57.2188 25.0938C57.4688 25.0208 57.6979 24.9844 57.9062 24.9844C58.1875 24.9844 58.3281 25.0729 58.3281 25.25C58.3281 25.3438 58.2969 25.4219 58.2344 25.4844C58.1719 25.5469 58.0833 25.6094 57.9688 25.6719C57.8646 25.724 57.7396 25.7812 57.5938 25.8438C57.4479 25.9062 57.2969 25.9844 57.1406 26.0781C56.8177 26.276 56.5729 26.5573 56.4062 26.9219C56.25 27.2865 56.1719 27.8281 56.1719 28.5469C56.1719 28.9219 56.1875 29.3281 56.2188 29.7656C56.25 30.2031 56.2812 30.6302 56.3125 31.0469C56.3542 31.4531 56.3958 31.8333 56.4375 32.1875C56.4896 32.5417 56.5312 32.8229 56.5625 33.0312C56.6146 33.3125 56.6562 33.5938 56.6875 33.875C56.7292 34.1458 56.75 34.3542 56.75 34.5C56.75 34.6146 56.7292 34.7083 56.6875 34.7812C56.6458 34.8438 56.5833 34.875 56.5 34.875C56.375 34.875 56.2292 34.8281 56.0625 34.7344C55.9062 34.6406 55.724 34.5365 55.5156 34.4219C55.3177 34.2969 55.1042 34.1875 54.875 34.0938C54.6458 34 54.4062 33.9531 54.1562 33.9531C53.8333 33.9531 53.5156 34.0208 53.2031 34.1562C52.901 34.2917 52.5781 34.4635 52.2344 34.6719C51.8906 34.8698 51.5104 35.0885 51.0938 35.3281C50.6771 35.5677 50.1875 35.7917 49.625 36C49.0729 36.1979 48.4323 36.3646 47.7031 36.5C46.9844 36.6354 46.151 36.7031 45.2031 36.7031C43.849 36.7031 42.5781 36.474 41.3906 36.0156C40.2135 35.5677 39.1823 34.9219 38.2969 34.0781C37.4219 33.2344 36.7292 32.2188 36.2188 31.0312C35.7188 29.8438 35.4688 28.5156 35.4688 27.0469C35.4688 25.6719 35.6302 24.4323 35.9531 23.3281C36.2865 22.224 36.7292 21.25 37.2812 20.4062C37.8333 19.5521 38.4635 18.8177 39.1719 18.2031C39.8802 17.5885 40.6198 17.0781 41.3906 16.6719C41.974 16.3594 42.5521 16.1042 43.125 15.9062C43.7083 15.7083 44.2708 15.5521 44.8125 15.4375C45.3542 15.3229 45.8594 15.2448 46.3281 15.2031C46.8073 15.1615 47.2396 15.1406 47.625 15.1406ZM60.6875 7.96875C60.875 7.96875 61.1198 8.02083 61.4219 8.125C61.7344 8.22917 62.099 8.35938 62.5156 8.51562C62.9427 8.66146 63.4167 8.81771 63.9375 8.98438C64.4688 9.14062 65.0417 9.28125 65.6562 9.40625C66.2604 9.53125 66.8958 9.63542 67.5625 9.71875C68.2396 9.79167 68.875 9.85417 69.4688 9.90625C70.0625 9.94792 70.5833 9.98438 71.0312 10.0156C71.4896 10.0469 71.7969 10.0677 71.9531 10.0781C72.099 10.099 72.2135 10.1302 72.2969 10.1719C72.3906 10.2031 72.4375 10.2708 72.4375 10.375C72.4375 10.4896 72.3906 10.5677 72.2969 10.6094C72.2031 10.6406 72.099 10.6562 71.9844 10.6562C71.7552 10.6562 71.4167 10.6406 70.9688 10.6094C70.5312 10.5781 70.0677 10.5625 69.5781 10.5625C69.2135 10.5625 68.8906 10.599 68.6094 10.6719C68.3385 10.7344 68.1094 10.8438 67.9219 11C67.7448 11.1562 67.6042 11.3646 67.5 11.625C67.3958 11.875 67.3333 12.1927 67.3125 12.5781C67.2917 12.7969 67.276 13.0833 67.2656 13.4375C67.2656 13.7812 67.2604 14.1667 67.25 14.5938C67.25 15.0208 67.25 15.4792 67.25 15.9688C67.25 16.4479 67.25 16.9375 67.25 17.4375C67.25 18.0417 67.25 18.6302 67.25 19.2031C67.25 19.776 67.25 20.3021 67.25 20.7812C67.25 21.2604 67.25 21.6667 67.25 22C67.2604 22.3333 67.2708 22.5625 67.2812 22.6875C67.2917 22.9583 67.3229 23.1771 67.375 23.3438C67.4271 23.5104 67.5 23.6406 67.5938 23.7344C67.6875 23.8281 67.7969 23.8906 67.9219 23.9219C68.0469 23.9531 68.1875 23.9688 68.3438 23.9688C68.6354 23.9688 68.9896 23.9583 69.4062 23.9375C69.8229 23.9062 70.2656 23.8698 70.7344 23.8281C71.2135 23.7865 71.6927 23.7396 72.1719 23.6875C72.651 23.625 73.0938 23.5729 73.5 23.5312C73.9167 23.4792 74.2812 23.4323 74.5938 23.3906C74.9062 23.349 75.125 23.3177 75.25 23.2969C75.6042 23.2344 75.8854 23.1146 76.0938 22.9375C76.3021 22.7604 76.4531 22.5469 76.5469 22.2969C76.651 22.0469 76.7135 21.7656 76.7344 21.4531C76.7656 21.1302 76.7812 20.7969 76.7812 20.4531C76.7812 19.9844 76.7604 19.5052 76.7188 19.0156C76.6875 18.5156 76.6458 18.0417 76.5938 17.5938C76.5417 17.1458 76.4844 16.7396 76.4219 16.375C76.3698 16.0104 76.3281 15.7344 76.2969 15.5469C76.2344 15.1406 76.1406 14.8281 76.0156 14.6094C75.8906 14.3802 75.75 14.2135 75.5938 14.1094C75.4479 13.9948 75.2917 13.9271 75.125 13.9062C74.9688 13.875 74.8281 13.8594 74.7031 13.8594C74.349 13.8594 73.9844 13.8698 73.6094 13.8906C73.2448 13.9115 72.9583 13.9219 72.75 13.9219C72.5417 13.9219 72.3802 13.8802 72.2656 13.7969C72.1615 13.7135 72.1094 13.6042 72.1094 13.4688C72.1094 13.3542 72.151 13.2448 72.2344 13.1406C72.3281 13.0365 72.5417 12.974 72.875 12.9531C73.1875 12.9427 73.5365 12.9271 73.9219 12.9062C74.3177 12.875 74.7292 12.8385 75.1562 12.7969C75.5938 12.7448 76.0365 12.6875 76.4844 12.625C76.9323 12.5625 77.375 12.4844 77.8125 12.3906C78.2083 12.2969 78.6302 12.1875 79.0781 12.0625C79.5365 11.9271 79.9792 11.8021 80.4062 11.6875C80.8438 11.5625 81.25 11.4583 81.625 11.375C82 11.2812 82.3073 11.2344 82.5469 11.2344C82.7865 11.2344 82.9375 11.2708 83 11.3438C83.0625 11.4167 83.0938 11.4948 83.0938 11.5781C83.0938 11.724 83.0312 11.8281 82.9062 11.8906C82.7917 11.9427 82.6615 11.9688 82.5156 11.9688C82.4427 11.9688 82.3438 11.974 82.2188 11.9844C82.0938 11.9948 81.9635 12.0156 81.8281 12.0469C81.6927 12.0677 81.5573 12.099 81.4219 12.1406C81.2865 12.1823 81.1719 12.2396 81.0781 12.3125C80.9115 12.4479 80.7552 12.6354 80.6094 12.875C80.474 13.1042 80.3698 13.4531 80.2969 13.9219C80.2448 14.2969 80.2031 14.7708 80.1719 15.3438C80.151 15.9062 80.1302 16.5 80.1094 17.125C80.0885 17.75 80.0677 18.375 80.0469 19C80.0365 19.625 80.026 20.1823 80.0156 20.6719C80.0052 20.9219 79.9896 21.2917 79.9688 21.7812C79.9583 22.2604 79.9479 22.8177 79.9375 23.4531C79.9271 24.0781 79.9115 24.7656 79.8906 25.5156C79.8802 26.2552 79.8698 27.0104 79.8594 27.7812C79.849 28.5417 79.8385 29.3073 79.8281 30.0781C79.8281 30.8385 79.8281 31.5521 79.8281 32.2188C79.8281 32.7812 79.8281 33.2969 79.8281 33.7656C79.8281 34.2344 79.8385 34.6354 79.8594 34.9688C79.8698 35.3021 79.9115 35.5781 79.9844 35.7969C80.0677 36.0052 80.1615 36.1719 80.2656 36.2969C80.3698 36.4323 80.4792 36.5312 80.5938 36.5938C80.7188 36.6667 80.8333 36.724 80.9375 36.7656C81.1667 36.849 81.4115 36.9115 81.6719 36.9531C81.9323 36.9948 82.2135 37.0521 82.5156 37.125C82.6615 37.1562 82.7552 37.1927 82.7969 37.2344C82.8385 37.2865 82.8594 37.3438 82.8594 37.4062C82.8594 37.4271 82.8542 37.4531 82.8438 37.4844C82.8333 37.526 82.8073 37.5625 82.7656 37.5938C82.7344 37.625 82.6771 37.651 82.5938 37.6719C82.5104 37.6927 82.3958 37.7031 82.25 37.7031C82.125 37.7031 81.901 37.6875 81.5781 37.6562C81.2656 37.6354 80.9115 37.6042 80.5156 37.5625C80.1198 37.5312 79.7135 37.5 79.2969 37.4688C78.8802 37.4479 78.5104 37.4375 78.1875 37.4375C77.7604 37.4375 77.3385 37.4531 76.9219 37.4844C76.5052 37.526 76.1094 37.5677 75.7344 37.6094C75.3594 37.6615 75.0052 37.7031 74.6719 37.7344C74.3385 37.776 74.0417 37.7969 73.7812 37.7969C73.3438 37.7969 73.0625 37.7396 72.9375 37.625C72.8125 37.5208 72.75 37.4062 72.75 37.2812C72.75 37.1146 72.8125 37.0052 72.9375 36.9531C73.0729 36.9115 73.2344 36.8906 73.4219 36.8906C74.0156 36.8698 74.5104 36.8385 74.9062 36.7969C75.3125 36.7656 75.6927 36.6719 76.0469 36.5156C76.3073 36.3906 76.5156 36.2396 76.6719 36.0625C76.8385 35.8958 76.9583 35.7135 77.0312 35.5156C77.1146 35.3073 77.1667 35.099 77.1875 34.8906C77.2188 34.6719 77.2344 34.4635 77.2344 34.2656C77.2344 34.1094 77.224 33.8281 77.2031 33.4219C77.1823 33.0156 77.151 32.5417 77.1094 32C77.0781 31.4479 77.0365 30.8646 76.9844 30.25C76.9427 29.625 76.8958 29.0208 76.8438 28.4375C76.7917 27.8438 76.7396 27.3021 76.6875 26.8125C76.6458 26.3229 76.6042 25.9375 76.5625 25.6562C76.5104 25.3438 76.4427 25.099 76.3594 24.9219C76.2865 24.7344 76.1927 24.5938 76.0781 24.5C75.974 24.4062 75.849 24.349 75.7031 24.3281C75.5573 24.2969 75.3958 24.2812 75.2188 24.2812C75.0312 24.2812 74.7448 24.2969 74.3594 24.3281C73.9844 24.3594 73.5573 24.401 73.0781 24.4531C72.6094 24.4948 72.1146 24.5469 71.5938 24.6094C71.0833 24.6719 70.599 24.7344 70.1406 24.7969C69.6927 24.8594 69.2917 24.9219 68.9375 24.9844C68.5833 25.0469 68.3385 25.1042 68.2031 25.1562C68.0052 25.2188 67.849 25.3021 67.7344 25.4062C67.6198 25.5104 67.5365 25.625 67.4844 25.75C67.4323 25.8646 67.3958 25.9896 67.375 26.125C67.3646 26.25 67.3542 26.375 67.3438 26.5C67.3438 26.8021 67.3438 27.2135 67.3438 27.7344C67.3542 28.2552 67.3594 28.8333 67.3594 29.4688C67.3698 30.0938 67.3802 30.7552 67.3906 31.4531C67.401 32.1406 67.4062 32.8073 67.4062 33.4531C67.4167 34.099 67.4219 34.6979 67.4219 35.25C67.4323 35.7917 67.4375 36.2344 67.4375 36.5781C67.4375 37.0677 67.4688 37.4635 67.5312 37.7656C67.5938 38.0677 67.6771 38.3073 67.7812 38.4844C67.8854 38.6719 68.0104 38.8177 68.1562 38.9219C68.3021 39.0365 68.4583 39.1406 68.625 39.2344C68.8021 39.3281 68.9688 39.4115 69.125 39.4844C69.2812 39.5677 69.3594 39.6771 69.3594 39.8125C69.3594 39.8958 69.3229 39.9531 69.25 39.9844C69.1875 40.0156 69.1094 40.0312 69.0156 40.0312C68.7969 40.0312 68.5677 40 68.3281 39.9375C68.099 39.875 67.8281 39.8073 67.5156 39.7344C67.2031 39.6719 66.8281 39.6094 66.3906 39.5469C65.9635 39.4844 65.4479 39.4531 64.8438 39.4531C64.2188 39.4531 63.6406 39.4896 63.1094 39.5625C62.5885 39.6354 62.1198 39.7135 61.7031 39.7969C61.2865 39.8906 60.9271 39.974 60.625 40.0469C60.3229 40.1198 60.0781 40.1562 59.8906 40.1562C59.5052 40.1562 59.3125 40.0208 59.3125 39.75C59.3125 39.5833 59.3542 39.4635 59.4375 39.3906C59.5312 39.3177 59.651 39.2552 59.7969 39.2031C59.8594 39.1823 59.9635 39.1562 60.1094 39.125C60.2552 39.0938 60.4271 39.0573 60.625 39.0156C60.8333 38.9844 61.0573 38.9427 61.2969 38.8906C61.5365 38.8385 61.7812 38.7812 62.0312 38.7188C62.3646 38.6354 62.625 38.5208 62.8125 38.375C63 38.2292 63.1354 38.0625 63.2188 37.875C63.3125 37.6979 63.3698 37.5052 63.3906 37.2969C63.4115 37.0885 63.4271 36.8802 63.4375 36.6719C63.4375 36.6094 63.4427 36.3958 63.4531 36.0312C63.4635 35.6771 63.4792 35.2292 63.5 34.6875C63.5208 34.1354 63.5417 33.5104 63.5625 32.8125C63.5833 32.1042 63.6042 31.375 63.625 30.625C63.6458 29.8646 63.6615 29.1094 63.6719 28.3594C63.6823 27.599 63.6927 26.8802 63.7031 26.2031C63.7031 26.0469 63.7031 25.7917 63.7031 25.4375C63.7135 25.0729 63.7188 24.6406 63.7188 24.1406C63.7188 23.6406 63.7188 23.0833 63.7188 22.4688C63.7292 21.8542 63.7344 21.2135 63.7344 20.5469C63.7344 19.6615 63.7292 18.7604 63.7188 17.8438C63.7188 16.9271 63.7083 16.0729 63.6875 15.2812C63.6771 14.4792 63.6562 13.776 63.625 13.1719C63.6042 12.5677 63.5729 12.1354 63.5312 11.875C63.4896 11.5729 63.4323 11.3073 63.3594 11.0781C63.2865 10.8385 63.1875 10.625 63.0625 10.4375C62.9375 10.25 62.7865 10.0781 62.6094 9.92188C62.4427 9.76562 62.2396 9.61458 62 9.46875C61.7708 9.33333 61.5521 9.21354 61.3438 9.10938C61.1354 9.00521 60.9479 8.91146 60.7812 8.82812C60.625 8.74479 60.5 8.66146 60.4062 8.57812C60.3125 8.48438 60.2656 8.38542 60.2656 8.28125C60.2656 8.1875 60.2969 8.11458 60.3594 8.0625C60.4219 8 60.5312 7.96875 60.6875 7.96875ZM84.7969 8.09375C85.0156 8.09375 85.2708 8.11979 85.5625 8.17188C85.8542 8.21354 86.1615 8.26562 86.4844 8.32812C86.8177 8.39062 87.1615 8.45833 87.5156 8.53125C87.8698 8.60417 88.2292 8.66146 88.5938 8.70312C89.1875 8.78646 89.7708 8.86458 90.3438 8.9375C90.9167 9 91.5156 9.05729 92.1406 9.10938C92.776 9.15104 93.4531 9.1875 94.1719 9.21875C94.8906 9.23958 95.6875 9.25 96.5625 9.25C97.6667 9.25 98.599 9.21354 99.3594 9.14062C100.12 9.06771 100.776 8.98958 101.328 8.90625C101.88 8.8125 102.359 8.72917 102.766 8.65625C103.182 8.58333 103.599 8.54688 104.016 8.54688C104.474 8.54688 104.776 8.65104 104.922 8.85938C105.068 9.06771 105.141 9.35938 105.141 9.73438C105.141 10.0781 105.125 10.5 105.094 11C105.062 11.4896 105.021 12 104.969 12.5312C104.917 13.0625 104.849 13.5938 104.766 14.125C104.693 14.6458 104.609 15.1146 104.516 15.5312C104.432 15.9479 104.339 16.2865 104.234 16.5469C104.13 16.8073 104.026 16.9323 103.922 16.9219C103.797 16.9219 103.708 16.7083 103.656 16.2812C103.615 15.8438 103.568 15.2083 103.516 14.375C103.484 13.7604 103.411 13.2188 103.297 12.75C103.182 12.2708 103.01 11.8646 102.781 11.5312C102.552 11.1979 102.255 10.9271 101.891 10.7188C101.526 10.5104 101.073 10.3594 100.531 10.2656C100.083 10.1823 99.5677 10.1302 98.9844 10.1094C98.4115 10.0885 97.8177 10.0781 97.2031 10.0781V30.2344C97.2031 31.3385 97.2656 32.2344 97.3906 32.9219C97.526 33.6094 97.6927 34.1562 97.8906 34.5625C98.099 34.9688 98.3229 35.2604 98.5625 35.4375C98.8125 35.6146 99.0521 35.75 99.2812 35.8438C99.4375 35.9062 99.625 35.9583 99.8438 36C100.062 36.0417 100.292 36.0781 100.531 36.1094C100.771 36.1406 101.005 36.1615 101.234 36.1719C101.474 36.1927 101.688 36.2083 101.875 36.2188C102.292 36.2396 102.62 36.2708 102.859 36.3125C103.099 36.3542 103.219 36.4635 103.219 36.6406C103.219 36.7135 103.198 36.7865 103.156 36.8594C103.115 36.9323 103.036 36.9948 102.922 37.0469C102.807 37.1094 102.641 37.1562 102.422 37.1875C102.214 37.2292 101.938 37.25 101.594 37.25C101.062 37.25 100.542 37.2396 100.031 37.2188C99.5208 37.1979 99.0052 37.1875 98.4844 37.1875C97.6927 37.1875 96.9271 37.2396 96.1875 37.3438C95.4479 37.4583 94.7188 37.625 94 37.8438C93.2812 38.0625 92.5573 38.3333 91.8281 38.6562C91.099 38.9896 90.3542 39.375 89.5938 39.8125C89.3542 39.9583 89.1094 40.0885 88.8594 40.2031C88.6198 40.3281 88.4271 40.3906 88.2812 40.3906C88.1458 40.3906 88.0781 40.3229 88.0781 40.1875C88.0781 40.0729 88.1562 39.9375 88.3125 39.7812C88.4792 39.6354 88.6927 39.4635 88.9531 39.2656C89.2135 39.0781 89.5104 38.8542 89.8438 38.5938C90.1875 38.3333 90.5417 38.0365 90.9062 37.7031C91.4271 37.2135 91.8438 36.7292 92.1562 36.25C92.4792 35.7708 92.7292 35.2708 92.9062 34.75C93.0938 34.2292 93.224 33.6771 93.2969 33.0938C93.3802 32.5 93.4375 31.849 93.4688 31.1406L94.5156 10.0469C94.026 10.0365 93.6146 10.0312 93.2812 10.0312C92.9583 10.0208 92.6562 10.0156 92.375 10.0156C92.0938 10.0156 91.8073 10.0156 91.5156 10.0156C91.2344 10.0156 90.901 10.0156 90.5156 10.0156C89.7969 10.0156 89.1875 10.0521 88.6875 10.125C88.1875 10.1875 87.7656 10.2812 87.4219 10.4062C87.0885 10.5312 86.8281 10.6927 86.6406 10.8906C86.4531 11.0781 86.3073 11.3021 86.2031 11.5625C86.1094 11.8125 86.0521 12.0938 86.0312 12.4062C86.0104 12.7188 86 13.0625 86 13.4375C86 13.8438 86.0208 14.2656 86.0625 14.7031C86.1146 15.1302 86.1771 15.5521 86.25 15.9688C86.3229 16.3854 86.401 16.7812 86.4844 17.1562C86.5677 17.5208 86.651 17.849 86.7344 18.1406C86.8073 18.4115 86.875 18.651 86.9375 18.8594C87 19.0677 87.0312 19.2448 87.0312 19.3906C87.0312 19.4427 87.0156 19.5052 86.9844 19.5781C86.9635 19.651 86.9062 19.6875 86.8125 19.6875C86.6771 19.6875 86.5312 19.5885 86.375 19.3906C86.2292 19.1927 86.0833 18.9323 85.9375 18.6094C85.7917 18.276 85.6458 17.901 85.5 17.4844C85.3542 17.0677 85.2135 16.6406 85.0781 16.2031C84.9531 15.7552 84.8333 15.3177 84.7188 14.8906C84.6042 14.4531 84.5 14.0573 84.4062 13.7031C84.1771 12.8177 84.0052 12 83.8906 11.25C83.7865 10.5 83.7344 9.89583 83.7344 9.4375C83.7344 9.02083 83.8021 8.69271 83.9375 8.45312C84.0833 8.21354 84.3698 8.09375 84.7969 8.09375ZM112.266 20.1562C112.151 19.4688 111.938 18.9271 111.625 18.5312C111.312 18.125 110.995 17.8333 110.672 17.6562C110.411 17.5104 110.151 17.401 109.891 17.3281C109.641 17.2552 109.422 17.1875 109.234 17.125C109.036 17.0521 108.891 16.974 108.797 16.8906C108.703 16.8073 108.656 16.6927 108.656 16.5469C108.656 16.2448 108.859 16.0938 109.266 16.0938C109.453 16.0938 109.635 16.1146 109.812 16.1562C109.99 16.1979 110.203 16.2448 110.453 16.2969C110.703 16.349 111 16.4115 111.344 16.4844C111.688 16.5469 112.115 16.599 112.625 16.6406C113.094 16.6823 113.49 16.7083 113.812 16.7188C114.135 16.7188 114.406 16.724 114.625 16.7344C114.854 16.7344 115.047 16.7448 115.203 16.7656C115.359 16.776 115.5 16.8073 115.625 16.8594C115.812 16.9427 116.057 17.1458 116.359 17.4688C116.672 17.7917 117.016 18.1875 117.391 18.6562C117.776 19.125 118.182 19.6458 118.609 20.2188C119.036 20.7917 119.458 21.375 119.875 21.9688C120.302 22.5521 120.714 23.1198 121.109 23.6719C121.516 24.224 121.88 24.7135 122.203 25.1406C122.536 25.5677 122.818 25.9115 123.047 26.1719C123.286 26.4323 123.448 26.5625 123.531 26.5625C123.708 26.5625 124.052 26.0833 124.562 25.125C125.083 24.1562 125.818 22.7135 126.766 20.7969C127.026 20.2656 127.292 19.7031 127.562 19.1094C127.844 18.5052 128.115 17.9115 128.375 17.3281C128.646 16.7344 128.901 16.1667 129.141 15.625C129.38 15.0833 129.599 14.6042 129.797 14.1875C130.005 13.7708 130.188 13.4375 130.344 13.1875C130.5 12.9271 130.62 12.7865 130.703 12.7656C130.755 12.7448 130.807 12.7344 130.859 12.7344C130.922 12.7344 130.99 12.7344 131.062 12.7344C131.25 12.7344 131.51 12.7396 131.844 12.75C132.177 12.7604 132.609 12.7656 133.141 12.7656C133.464 12.7656 133.755 12.7552 134.016 12.7344C134.276 12.7031 134.505 12.6719 134.703 12.6406C134.911 12.6094 135.099 12.5833 135.266 12.5625C135.432 12.5312 135.589 12.5156 135.734 12.5156C135.953 12.5156 136.094 12.5469 136.156 12.6094C136.229 12.6719 136.266 12.7448 136.266 12.8281C136.266 13.0156 136.109 13.1562 135.797 13.25C135.495 13.3438 135.068 13.4427 134.516 13.5469C133.974 13.6406 133.365 13.8073 132.688 14.0469C132.271 14.1927 131.979 14.4583 131.812 14.8438C131.646 15.2188 131.562 15.6875 131.562 16.25C131.562 16.6562 131.594 17.1771 131.656 17.8125C131.729 18.4375 131.823 19.1354 131.938 19.9062C132.062 20.6667 132.208 21.4792 132.375 22.3438C132.542 23.1979 132.719 24.0625 132.906 24.9375C133.104 25.8021 133.307 26.6458 133.516 27.4688C133.734 28.2917 133.953 29.0521 134.172 29.75C134.391 30.4479 134.604 31.0625 134.812 31.5938C135.031 32.1146 135.24 32.5052 135.438 32.7656C135.625 33.0156 135.812 33.2292 136 33.4062C136.198 33.5833 136.411 33.7344 136.641 33.8594C136.88 33.9844 137.135 34.0938 137.406 34.1875C137.688 34.2812 138 34.375 138.344 34.4688C138.677 34.5521 138.906 34.6406 139.031 34.7344C139.156 34.8281 139.219 34.9427 139.219 35.0781C139.219 35.224 139.13 35.3438 138.953 35.4375C138.786 35.5312 138.521 35.5781 138.156 35.5781C137.719 35.5781 137.26 35.5625 136.781 35.5312C136.312 35.5 135.792 35.4844 135.219 35.4844C134.292 35.4844 133.443 35.5521 132.672 35.6875C131.911 35.8229 131.214 35.974 130.578 36.1406C129.953 36.3073 129.385 36.4583 128.875 36.5938C128.365 36.7292 127.896 36.7969 127.469 36.7969C127.354 36.7969 127.24 36.776 127.125 36.7344C127.01 36.6927 126.953 36.599 126.953 36.4531C126.953 36.2969 127.047 36.1667 127.234 36.0625C127.422 35.9688 127.661 35.8802 127.953 35.7969C128.255 35.7031 128.589 35.6094 128.953 35.5156C129.318 35.4219 129.677 35.2969 130.031 35.1406C130.396 34.974 130.656 34.7604 130.812 34.5C130.979 34.2292 131.062 33.8854 131.062 33.4688C131.062 33.2292 131.021 32.8542 130.938 32.3438C130.865 31.8333 130.766 31.2396 130.641 30.5625C130.516 29.8854 130.37 29.1562 130.203 28.375C130.047 27.5938 129.88 26.8125 129.703 26.0312C129.536 25.25 129.365 24.5 129.188 23.7812C129.021 23.0521 128.87 22.4115 128.734 21.8594C128.599 21.3073 128.479 20.8646 128.375 20.5312C128.281 20.1979 128.224 20.0312 128.203 20.0312C128.172 20.0312 128.073 20.1719 127.906 20.4531C127.75 20.7344 127.552 21.1094 127.312 21.5781C127.073 22.0469 126.802 22.5833 126.5 23.1875C126.198 23.7917 125.891 24.4115 125.578 25.0469C125.276 25.6823 124.974 26.3125 124.672 26.9375C124.37 27.5625 124.094 28.1354 123.844 28.6562C123.594 29.1667 123.385 29.599 123.219 29.9531C123.052 30.2969 122.943 30.5104 122.891 30.5938C122.786 30.7917 122.677 31 122.562 31.2188C122.448 31.4375 122.328 31.6406 122.203 31.8281C122.089 32.0052 121.979 32.1562 121.875 32.2812C121.771 32.3958 121.682 32.4531 121.609 32.4531C121.547 32.4531 121.464 32.4062 121.359 32.3125C121.266 32.2083 121.167 32.0833 121.062 31.9375C120.958 31.7917 120.849 31.6354 120.734 31.4688C120.63 31.3021 120.542 31.151 120.469 31.0156C120.198 30.5469 119.88 29.9948 119.516 29.3594C119.151 28.7135 118.766 28.0417 118.359 27.3438C117.964 26.6354 117.568 25.9271 117.172 25.2188C116.786 24.5104 116.422 23.8594 116.078 23.2656C115.745 22.6615 115.458 22.1458 115.219 21.7188C114.979 21.2812 114.818 20.9844 114.734 20.8281C114.557 20.5156 114.406 20.2552 114.281 20.0469C114.156 19.8281 114.047 19.6562 113.953 19.5312C113.87 19.4062 113.797 19.3177 113.734 19.2656C113.672 19.2031 113.609 19.1719 113.547 19.1719C113.464 19.1719 113.422 19.2552 113.422 19.4219C113.422 19.5885 113.438 19.8177 113.469 20.1094C113.5 20.3906 113.526 20.6406 113.547 20.8594C113.651 21.8698 113.719 22.8177 113.75 23.7031C113.792 24.5781 113.812 25.4219 113.812 26.2344C113.812 26.9635 113.771 27.7552 113.688 28.6094C113.604 29.4531 113.464 30.3021 113.266 31.1562C113.068 32 112.797 32.8125 112.453 33.5938C112.12 34.375 111.693 35.0677 111.172 35.6719C110.651 36.276 110.031 36.7552 109.312 37.1094C108.604 37.474 107.776 37.6562 106.828 37.6562C106.276 37.6562 105.786 37.5677 105.359 37.3906C104.932 37.2135 104.568 36.974 104.266 36.6719C103.974 36.3802 103.75 36.0469 103.594 35.6719C103.448 35.2865 103.375 34.8854 103.375 34.4688C103.375 34.1771 103.411 33.8854 103.484 33.5938C103.568 33.3021 103.698 33.0469 103.875 32.8281C104.052 32.599 104.276 32.4167 104.547 32.2812C104.818 32.1354 105.151 32.0625 105.547 32.0625C105.859 32.0625 106.135 32.1198 106.375 32.2344C106.625 32.3385 106.844 32.474 107.031 32.6406C107.229 32.7969 107.406 32.974 107.562 33.1719C107.719 33.3698 107.859 33.5573 107.984 33.7344C108.422 34.3281 108.901 34.625 109.422 34.625C109.88 34.625 110.276 34.4844 110.609 34.2031C110.943 33.9219 111.229 33.5469 111.469 33.0781C111.719 32.599 111.922 32.0521 112.078 31.4375C112.234 30.8229 112.354 30.1823 112.438 29.5156C112.531 28.849 112.594 28.1823 112.625 27.5156C112.667 26.8385 112.688 26.2083 112.688 25.625C112.688 24.5938 112.646 23.6094 112.562 22.6719C112.479 21.7344 112.38 20.8958 112.266 20.1562ZM150.75 9.76562C150.823 9.76562 150.906 9.85417 151 10.0312C151.094 10.2083 151.182 10.4167 151.266 10.6562C151.359 10.8854 151.443 11.1198 151.516 11.3594C151.599 11.5885 151.661 11.7604 151.703 11.875C151.932 12.5521 152.188 13.3177 152.469 14.1719C152.75 15.026 153.047 15.9375 153.359 16.9062C153.682 17.875 154.016 18.8854 154.359 19.9375C154.714 20.9792 155.062 22.026 155.406 23.0781C155.76 24.1198 156.109 25.151 156.453 26.1719C156.797 27.1927 157.125 28.1667 157.438 29.0938C157.75 30.0104 158.042 30.8594 158.312 31.6406C158.594 32.4115 158.844 33.0833 159.062 33.6562C159.312 34.3333 159.557 34.875 159.797 35.2812C160.036 35.6875 160.292 36.0104 160.562 36.25C160.833 36.4896 161.13 36.6667 161.453 36.7812C161.786 36.8958 162.167 37 162.594 37.0938C162.906 37.1562 163.062 37.2708 163.062 37.4375C163.062 37.5521 163.005 37.6302 162.891 37.6719C162.776 37.7135 162.646 37.7344 162.5 37.7344C162.271 37.7344 161.979 37.7292 161.625 37.7188C161.271 37.7083 160.865 37.7031 160.406 37.7031C160.042 37.7031 159.646 37.7083 159.219 37.7188C158.802 37.7396 158.37 37.7656 157.922 37.7969C157.224 37.849 156.578 37.9323 155.984 38.0469C155.391 38.1719 154.854 38.2917 154.375 38.4062C153.896 38.5312 153.474 38.6406 153.109 38.7344C152.755 38.8281 152.469 38.875 152.25 38.875C152.135 38.875 152.042 38.8438 151.969 38.7812C151.906 38.7292 151.875 38.6562 151.875 38.5625C151.875 38.4271 151.911 38.3177 151.984 38.2344C152.057 38.151 152.198 38.0781 152.406 38.0156C152.49 37.9948 152.609 37.9635 152.766 37.9219C152.922 37.8802 153.094 37.8333 153.281 37.7812C153.469 37.7292 153.661 37.6667 153.859 37.5938C154.068 37.5312 154.255 37.4583 154.422 37.375C154.63 37.2604 154.818 37.1094 154.984 36.9219C155.151 36.7344 155.234 36.4479 155.234 36.0625C155.234 35.9792 155.224 35.8646 155.203 35.7188C155.193 35.5729 155.172 35.4427 155.141 35.3281C154.953 34.599 154.76 33.8594 154.562 33.1094C154.365 32.3594 154.167 31.6458 153.969 30.9688C153.771 30.2917 153.583 29.6667 153.406 29.0938C153.229 28.5208 153.068 28.0521 152.922 27.6875C152.682 27.0833 152.406 26.625 152.094 26.3125C151.781 25.9896 151.438 25.7396 151.062 25.5625C150.958 25.5208 150.786 25.4531 150.547 25.3594C150.307 25.2656 150.021 25.1667 149.688 25.0625C149.365 24.9479 149.016 24.8281 148.641 24.7031C148.266 24.5781 147.896 24.4583 147.531 24.3438C147.167 24.2188 146.823 24.1094 146.5 24.0156C146.188 23.9115 145.927 23.8229 145.719 23.75C145.469 24.5521 145.219 25.349 144.969 26.1406C144.729 26.9219 144.505 27.6458 144.297 28.3125C144.099 28.9688 143.922 29.5469 143.766 30.0469C143.62 30.5469 143.516 30.9115 143.453 31.1406C143.37 31.4115 143.312 31.6562 143.281 31.875C143.25 32.0938 143.234 32.2865 143.234 32.4531C143.234 32.7552 143.276 33.0104 143.359 33.2188C143.453 33.4167 143.573 33.5885 143.719 33.7344C143.865 33.8698 144.031 33.9896 144.219 34.0938C144.417 34.1875 144.62 34.2812 144.828 34.375C145.005 34.4583 145.161 34.5521 145.297 34.6562C145.432 34.75 145.5 34.8698 145.5 35.0156C145.5 35.1094 145.458 35.1927 145.375 35.2656C145.302 35.3281 145.182 35.3594 145.016 35.3594C144.839 35.3594 144.615 35.3177 144.344 35.2344C144.073 35.151 143.771 35.0469 143.438 34.9219C143.115 34.7969 142.771 34.6667 142.406 34.5312C142.042 34.3854 141.677 34.2552 141.312 34.1406C141.021 34.0573 140.719 33.9844 140.406 33.9219C140.094 33.849 139.792 33.7917 139.5 33.75C139.208 33.7083 138.943 33.6771 138.703 33.6562C138.474 33.625 138.297 33.6042 138.172 33.5938C137.911 33.5729 137.724 33.5365 137.609 33.4844C137.495 33.4323 137.438 33.3333 137.438 33.1875C137.438 33.0833 137.469 33 137.531 32.9375C137.604 32.8646 137.724 32.8281 137.891 32.8281C137.953 32.8281 138.062 32.8333 138.219 32.8438C138.385 32.8542 138.573 32.8594 138.781 32.8594C139.281 32.8594 139.698 32.8281 140.031 32.7656C140.365 32.7031 140.646 32.6042 140.875 32.4688C141.104 32.3333 141.292 32.1667 141.438 31.9688C141.594 31.7604 141.734 31.5156 141.859 31.2344C141.984 30.9635 142.135 30.6042 142.312 30.1562C142.49 29.6979 142.677 29.2031 142.875 28.6719C143.083 28.1302 143.292 27.5729 143.5 27C143.708 26.4167 143.901 25.8698 144.078 25.3594C144.266 24.8385 144.427 24.3802 144.562 23.9844C144.698 23.5781 144.797 23.276 144.859 23.0781C144.943 22.8073 145.057 22.4375 145.203 21.9688C145.359 21.4896 145.531 20.9583 145.719 20.375C145.906 19.7917 146.094 19.1875 146.281 18.5625C146.479 17.9271 146.656 17.3229 146.812 16.75C146.979 16.1667 147.109 15.6406 147.203 15.1719C147.307 14.6927 147.359 14.3177 147.359 14.0469C147.359 13.8385 147.302 13.6667 147.188 13.5312C147.073 13.3854 146.885 13.3125 146.625 13.3125C146.396 13.3125 146.135 13.3281 145.844 13.3594C145.562 13.3906 145.276 13.4219 144.984 13.4531C144.693 13.4844 144.406 13.5156 144.125 13.5469C143.854 13.5781 143.62 13.5938 143.422 13.5938C143.036 13.5938 142.844 13.4583 142.844 13.1875C142.844 12.9375 143.026 12.7969 143.391 12.7656C143.641 12.7552 143.922 12.7292 144.234 12.6875C144.557 12.6458 144.896 12.5885 145.25 12.5156C145.604 12.4427 145.958 12.3542 146.312 12.25C146.677 12.1354 147.026 12 147.359 11.8438C147.891 11.6042 148.344 11.3594 148.719 11.1094C149.094 10.8594 149.411 10.6354 149.672 10.4375C149.943 10.2396 150.161 10.0781 150.328 9.95312C150.505 9.82812 150.646 9.76562 150.75 9.76562ZM145.984 22.9062C146.307 23.0208 146.719 23.1667 147.219 23.3438C147.729 23.5104 148.245 23.6771 148.766 23.8438C149.286 24 149.766 24.1354 150.203 24.25C150.651 24.3646 150.974 24.4219 151.172 24.4219C151.297 24.4219 151.406 24.3802 151.5 24.2969C151.594 24.2031 151.641 24.0625 151.641 23.875C151.641 23.7188 151.594 23.4375 151.5 23.0312C151.406 22.6146 151.286 22.1458 151.141 21.625C151.005 21.0938 150.854 20.5417 150.688 19.9688C150.521 19.3854 150.365 18.849 150.219 18.3594C150.073 17.8698 149.948 17.4635 149.844 17.1406C149.75 16.8073 149.698 16.6198 149.688 16.5781C149.646 16.4531 149.589 16.276 149.516 16.0469C149.453 15.8073 149.38 15.5729 149.297 15.3438C149.224 15.1146 149.146 14.9167 149.062 14.75C148.99 14.5833 148.932 14.5 148.891 14.5C148.849 14.5 148.792 14.5573 148.719 14.6719C148.656 14.7865 148.589 14.9271 148.516 15.0938C148.443 15.25 148.37 15.4219 148.297 15.6094C148.224 15.7969 148.167 15.9688 148.125 16.125L145.984 22.9062ZM174.031 14.0156C175.281 14.0156 176.307 14.1979 177.109 14.5625C177.911 14.9167 178.547 15.375 179.016 15.9375C179.484 16.4896 179.807 17.1042 179.984 17.7812C180.172 18.4479 180.266 19.0938 180.266 19.7188C180.266 20.3333 180.188 20.9583 180.031 21.5938C179.875 22.2188 179.641 22.8073 179.328 23.3594C179.026 23.9115 178.651 24.4115 178.203 24.8594C177.766 25.2969 177.26 25.6302 176.688 25.8594L176.047 26.1094C176.557 27.6406 177.167 28.9531 177.875 30.0469C178.583 31.1406 179.344 32.0417 180.156 32.75C180.979 33.4583 181.833 33.9792 182.719 34.3125C183.615 34.6458 184.505 34.8125 185.391 34.8125C185.901 34.8125 186.365 34.7448 186.781 34.6094C187.208 34.474 187.573 34.276 187.875 34.0156C188.188 33.7448 188.427 33.4219 188.594 33.0469C188.76 32.6615 188.844 32.2188 188.844 31.7188C188.844 31.3438 188.823 31.0312 188.781 30.7812C188.74 30.5312 188.693 30.3281 188.641 30.1719C188.599 30.0052 188.557 29.875 188.516 29.7812C188.474 29.6875 188.453 29.6042 188.453 29.5312C188.453 29.4792 188.464 29.4375 188.484 29.4062C188.505 29.3646 188.547 29.3438 188.609 29.3438C188.703 29.3438 188.818 29.4219 188.953 29.5781C189.089 29.724 189.214 29.9219 189.328 30.1719C189.453 30.4219 189.557 30.7083 189.641 31.0312C189.724 31.3438 189.766 31.6667 189.766 32C189.766 32.7917 189.651 33.526 189.422 34.2031C189.193 34.8802 188.839 35.4688 188.359 35.9688C187.891 36.4688 187.297 36.8594 186.578 37.1406C185.859 37.4219 185.016 37.5625 184.047 37.5625C182.693 37.5625 181.479 37.3594 180.406 36.9531C179.344 36.5573 178.401 36.0417 177.578 35.4062C176.755 34.7708 176.047 34.0625 175.453 33.2812C174.859 32.4896 174.354 31.7031 173.938 30.9219C173.521 30.1302 173.188 29.3854 172.938 28.6875C172.688 27.9896 172.495 27.4167 172.359 26.9688C172.057 27.0104 171.771 27.0417 171.5 27.0625C171.229 27.0729 170.974 27.0781 170.734 27.0781C170.443 27.0781 170.193 27.0729 169.984 27.0625C169.786 27.0521 169.63 27.0365 169.516 27.0156C169.536 27.6927 169.562 28.4115 169.594 29.1719C169.635 29.9219 169.688 30.6458 169.75 31.3438C169.812 32.0417 169.891 32.6719 169.984 33.2344C170.078 33.7865 170.188 34.2083 170.312 34.5C170.531 34.9896 170.812 35.375 171.156 35.6562C171.5 35.9271 171.839 36.1406 172.172 36.2969C172.505 36.4635 172.792 36.5938 173.031 36.6875C173.271 36.7812 173.391 36.8802 173.391 36.9844C173.391 37.1198 173.24 37.1875 172.938 37.1875C172.604 37.1875 172.229 37.1354 171.812 37.0312C171.396 36.9375 170.943 36.8333 170.453 36.7188C169.974 36.6042 169.464 36.4948 168.922 36.3906C168.38 36.2969 167.818 36.25 167.234 36.25C166.672 36.25 166.094 36.2708 165.5 36.3125C164.906 36.3646 164.365 36.3906 163.875 36.3906C163.198 36.3906 162.714 36.3438 162.422 36.25C162.13 36.1562 161.984 36 161.984 35.7812C161.984 35.6458 162.026 35.5365 162.109 35.4531C162.193 35.3698 162.354 35.3281 162.594 35.3281C162.865 35.3281 163.104 35.3333 163.312 35.3438C163.531 35.3542 163.75 35.3594 163.969 35.3594C164.479 35.3594 164.917 35.3229 165.281 35.25C165.656 35.1771 165.958 35.0312 166.188 34.8125C166.417 34.5833 166.583 34.2656 166.688 33.8594C166.802 33.4531 166.859 32.9167 166.859 32.25C166.859 31.9792 166.849 31.5312 166.828 30.9062C166.807 30.2812 166.771 29.5573 166.719 28.7344C166.667 27.9115 166.599 27.0312 166.516 26.0938C166.443 25.1562 166.354 24.2396 166.25 23.3438C166.146 22.4375 166.021 21.5938 165.875 20.8125C165.729 20.0312 165.568 19.3854 165.391 18.875C165.203 18.3646 164.979 17.9635 164.719 17.6719C164.458 17.3802 164.161 17.1562 163.828 17C163.505 16.8438 163.151 16.7396 162.766 16.6875C162.391 16.6354 161.995 16.5885 161.578 16.5469C161.401 16.526 161.26 16.4896 161.156 16.4375C161.052 16.375 161 16.2708 161 16.125C161 16 161.042 15.8958 161.125 15.8125C161.208 15.7188 161.38 15.6615 161.641 15.6406C161.932 15.6198 162.193 15.6094 162.422 15.6094C162.651 15.6094 162.88 15.6094 163.109 15.6094C163.422 15.6094 163.724 15.6094 164.016 15.6094C164.307 15.6094 164.615 15.6042 164.938 15.5938C165.271 15.5729 165.635 15.5469 166.031 15.5156C166.438 15.474 166.906 15.4219 167.438 15.3594C168.125 15.2865 168.75 15.1771 169.312 15.0312C169.885 14.875 170.427 14.724 170.938 14.5781C171.458 14.4219 171.964 14.2917 172.453 14.1875C172.953 14.0729 173.479 14.0156 174.031 14.0156ZM169.484 26.2031C170.693 26.1927 171.729 26.0208 172.594 25.6875C173.469 25.3542 174.188 24.901 174.75 24.3281C175.312 23.7448 175.724 23.0625 175.984 22.2812C176.255 21.5 176.391 20.6562 176.391 19.75C176.391 18.1354 176.094 16.9219 175.5 16.1094C174.906 15.2865 174.062 14.875 172.969 14.875C172.51 14.875 172.104 14.9583 171.75 15.125C171.396 15.2812 171.083 15.5052 170.812 15.7969C170.552 16.0781 170.339 16.4219 170.172 16.8281C170.005 17.224 169.88 17.6615 169.797 18.1406C169.641 19.1406 169.542 20.1354 169.5 21.125C169.469 22.1042 169.453 23.0521 169.453 23.9688L169.484 26.2031ZM202.719 10.3438C202.875 10.3438 202.979 10.3802 203.031 10.4531C203.094 10.526 203.125 10.6354 203.125 10.7812C203.125 10.9688 203.109 11.1823 203.078 11.4219C203.057 11.6615 203.031 11.9635 203 12.3281C202.969 12.6823 202.938 13.1146 202.906 13.625C202.885 14.125 202.875 14.7344 202.875 15.4531C202.875 15.5885 202.854 15.7083 202.812 15.8125C202.771 15.9167 202.693 15.9688 202.578 15.9688C202.411 15.9688 202.297 15.7969 202.234 15.4531C202.182 15.2344 202.135 14.9583 202.094 14.625C202.062 14.2812 202.01 13.8646 201.938 13.375C201.885 12.9792 201.797 12.6719 201.672 12.4531C201.557 12.2344 201.411 12.0729 201.234 11.9688C201.068 11.8646 200.885 11.8021 200.688 11.7812C200.49 11.7604 200.292 11.75 200.094 11.75C199.688 11.75 199.219 11.7708 198.688 11.8125C198.167 11.8438 197.656 11.8854 197.156 11.9375C196.656 11.9792 196.203 12.026 195.797 12.0781C195.401 12.1302 195.125 12.1771 194.969 12.2188C194.635 12.3021 194.427 12.4427 194.344 12.6406C194.271 12.8281 194.234 13.0521 194.234 13.3125C194.234 13.5417 194.24 13.875 194.25 14.3125C194.26 14.7396 194.276 15.2344 194.297 15.7969C194.318 16.349 194.344 16.9479 194.375 17.5938C194.406 18.2292 194.432 18.8698 194.453 19.5156C194.484 20.1615 194.51 20.7865 194.531 21.3906C194.562 21.9948 194.589 22.5365 194.609 23.0156C194.839 23.0469 195.099 23.0781 195.391 23.1094C195.693 23.1302 195.99 23.1406 196.281 23.1406C196.625 23.1406 196.911 23.1198 197.141 23.0781C197.38 23.026 197.578 22.9583 197.734 22.875C197.901 22.7917 198.031 22.6927 198.125 22.5781C198.219 22.4531 198.297 22.3177 198.359 22.1719C198.422 22.0156 198.464 21.8646 198.484 21.7188C198.516 21.5729 198.547 21.4062 198.578 21.2188C198.609 21.0208 198.656 20.8906 198.719 20.8281C198.781 20.7656 198.844 20.7344 198.906 20.7344C199.052 20.7344 199.125 20.8646 199.125 21.125C199.125 21.3542 199.109 21.6354 199.078 21.9688C199.057 22.3021 199.031 22.651 199 23.0156C198.969 23.3802 198.938 23.75 198.906 24.125C198.885 24.5 198.875 24.8438 198.875 25.1562C198.875 25.4375 198.875 25.7188 198.875 26C198.885 26.2812 198.896 26.5417 198.906 26.7812C198.917 27.0208 198.922 27.2344 198.922 27.4219C198.932 27.6094 198.938 27.75 198.938 27.8438C198.938 27.9896 198.906 28.1302 198.844 28.2656C198.792 28.3906 198.693 28.4531 198.547 28.4531C198.307 28.4531 198.172 28.2396 198.141 27.8125C198.13 27.7083 198.12 27.5625 198.109 27.375C198.109 27.1875 198.104 26.9896 198.094 26.7812C198.083 26.5729 198.062 26.3646 198.031 26.1562C198.01 25.9479 197.979 25.7708 197.938 25.625C197.885 25.4479 197.792 25.276 197.656 25.1094C197.521 24.9323 197.307 24.7969 197.016 24.7031C196.891 24.6615 196.734 24.625 196.547 24.5938C196.37 24.5625 196.172 24.5365 195.953 24.5156C195.745 24.4948 195.526 24.4792 195.297 24.4688C195.078 24.4479 194.87 24.4323 194.672 24.4219C194.703 24.9427 194.74 25.5885 194.781 26.3594C194.833 27.1198 194.885 27.9271 194.938 28.7812C195 29.625 195.062 30.4792 195.125 31.3438C195.188 32.2083 195.245 33 195.297 33.7188C195.349 34.4375 195.391 35.0469 195.422 35.5469C195.464 36.0365 195.495 36.3385 195.516 36.4531C195.557 36.8802 195.667 37.1927 195.844 37.3906C196.021 37.5885 196.302 37.7135 196.688 37.7656C197.104 37.8281 197.609 37.8594 198.203 37.8594C198.995 37.8594 199.693 37.8177 200.297 37.7344C200.901 37.651 201.427 37.5052 201.875 37.2969C202.323 37.0885 202.703 36.8073 203.016 36.4531C203.328 36.1094 203.589 35.6719 203.797 35.1406C203.911 34.8594 204.005 34.5833 204.078 34.3125C204.161 34.0312 204.229 33.7812 204.281 33.5625C204.344 33.3438 204.401 33.1667 204.453 33.0312C204.505 32.8958 204.562 32.8281 204.625 32.8281C204.708 32.8281 204.766 32.9271 204.797 33.125C204.839 33.3125 204.859 33.5365 204.859 33.7969C204.859 34.1719 204.839 34.5885 204.797 35.0469C204.766 35.4948 204.719 35.9375 204.656 36.375C204.594 36.8125 204.521 37.2188 204.438 37.5938C204.365 37.9688 204.292 38.2604 204.219 38.4688C204.083 38.8021 203.901 39.0312 203.672 39.1562C203.443 39.2917 203.135 39.3594 202.75 39.3594C202.417 39.3594 201.964 39.3281 201.391 39.2656C200.818 39.2135 200.156 39.1458 199.406 39.0625C198.667 38.9896 197.865 38.9115 197 38.8281C196.146 38.7448 195.266 38.6771 194.359 38.625C193.661 38.5833 192.995 38.5521 192.359 38.5312C191.734 38.5104 191.161 38.4948 190.641 38.4844C190.12 38.474 189.667 38.4688 189.281 38.4688C188.896 38.4688 188.594 38.4688 188.375 38.4688C188.083 38.4688 187.891 38.4271 187.797 38.3438C187.714 38.2708 187.672 38.1719 187.672 38.0469C187.672 37.8906 187.729 37.7812 187.844 37.7188C187.958 37.6562 188.104 37.625 188.281 37.625C188.396 37.625 188.589 37.6354 188.859 37.6562C189.141 37.6875 189.479 37.7031 189.875 37.7031C190.01 37.7031 190.146 37.6979 190.281 37.6875C190.427 37.6875 190.583 37.6771 190.75 37.6562C191.125 37.6458 191.411 37.5781 191.609 37.4531C191.818 37.3385 191.969 37.1979 192.062 37.0312C192.156 36.875 192.208 36.7083 192.219 36.5312C192.24 36.3542 192.25 36.1979 192.25 36.0625C192.229 35.0521 192.172 33.974 192.078 32.8281C191.995 31.6719 191.901 30.5469 191.797 29.4531C191.703 28.3594 191.604 27.3542 191.5 26.4375C191.406 25.5208 191.333 24.7917 191.281 24.25C191.25 23.8958 191.208 23.474 191.156 22.9844C191.104 22.4844 191.042 21.9531 190.969 21.3906C190.906 20.8281 190.833 20.2552 190.75 19.6719C190.677 19.0781 190.599 18.5052 190.516 17.9531C190.443 17.3906 190.365 16.8698 190.281 16.3906C190.208 15.9115 190.141 15.5052 190.078 15.1719C189.995 14.7656 189.901 14.4167 189.797 14.125C189.703 13.8333 189.599 13.5781 189.484 13.3594C189.37 13.1406 189.245 12.9531 189.109 12.7969C188.984 12.6406 188.844 12.5052 188.688 12.3906C188.573 12.2969 188.438 12.2083 188.281 12.125C188.125 12.0312 187.974 11.9427 187.828 11.8594C187.693 11.776 187.578 11.6979 187.484 11.625C187.391 11.5417 187.344 11.4531 187.344 11.3594C187.344 11.1927 187.484 11.1094 187.766 11.1094C187.911 11.1094 188.115 11.1302 188.375 11.1719C188.635 11.2031 188.958 11.2396 189.344 11.2812C189.74 11.3229 190.203 11.3646 190.734 11.4062C191.276 11.4375 191.896 11.4531 192.594 11.4531C193.135 11.4531 193.745 11.4271 194.422 11.375C195.099 11.3125 195.792 11.2448 196.5 11.1719C197.219 11.0885 197.927 11 198.625 10.9062C199.323 10.8021 199.958 10.7135 200.531 10.6406C201.104 10.5573 201.583 10.4896 201.969 10.4375C202.365 10.375 202.615 10.3438 202.719 10.3438Z" fill="white"/>
</svg>
