<svg width="23" height="20" viewBox="0 0 23 20" fill="none" xmlns="http://www.w3.org/2000/svg">
<path d="M0 1.38889C0 1.02053 0.131206 0.667264 0.364755 0.406797C0.598303 0.146329 0.915063 0 1.24535 0H21.171C21.5012 0 21.818 0.146329 22.0515 0.406797C22.2851 0.667264 22.4163 1.02053 22.4163 1.38889C22.4163 1.75725 22.2851 2.11051 22.0515 2.37098C21.818 2.63145 21.5012 2.77778 21.171 2.77778H1.24535C0.915063 2.77778 0.598303 2.63145 0.364755 2.37098C0.131206 2.11051 0 1.75725 0 1.38889ZM21.171 8.33334H1.24535C0.915063 8.33334 0.598303 8.47966 0.364755 8.74013C0.131206 9.0006 0 9.35387 0 9.72223C0 10.0906 0.131206 10.4439 0.364755 10.7043C0.598303 10.9648 0.915063 11.1111 1.24535 11.1111H21.171C21.5012 11.1111 21.818 10.9648 22.0515 10.7043C22.2851 10.4439 22.4163 10.0906 22.4163 9.72223C22.4163 9.35387 22.2851 9.0006 22.0515 8.74013C21.818 8.47966 21.5012 8.33334 21.171 8.33334ZM21.171 16.6667H1.24535C0.915063 16.6667 0.598303 16.813 0.364755 17.0735C0.131206 17.3339 0 17.6872 0 18.0556C0 18.4239 0.131206 18.7772 0.364755 19.0377C0.598303 19.2981 0.915063 19.4445 1.24535 19.4445H21.171C21.5012 19.4445 21.818 19.2981 22.0515 19.0377C22.2851 18.7772 22.4163 18.4239 22.4163 18.0556C22.4163 17.6872 22.2851 17.3339 22.0515 17.0735C21.818 16.813 21.5012 16.6667 21.171 16.6667Z" fill="white"/>
</svg>
