<svg width="38" height="35" viewBox="0 0 38 35" fill="none" xmlns="http://www.w3.org/2000/svg">
<path d="M34.9462 27.0858C34.9342 25.6671 34.3028 24.309 33.1868 23.3017L32.7216 22.831C30.978 21.2702 28.6147 20.3913 26.149 20.3867C24.7444 20.3962 23.3608 20.6935 22.1043 21.2558L20.3853 22.0162C18.9221 21.3818 17.5889 20.531 16.4417 19.4996C15.292 18.4406 14.3487 17.2166 13.6509 15.8785L14.5003 14.3395C15.1388 13.2173 15.4779 11.9778 15.4912 10.7184C15.4702 9.61645 15.2056 8.52911 14.7127 7.51916C14.2198 6.50921 13.5084 5.59665 12.6195 4.83416L12.0532 4.34531C10.9165 3.32639 9.37437 2.7533 7.76583 2.75203H6.06706C4.45797 2.75203 2.91479 3.32429 1.777 4.34292C0.639206 5.36155 0 6.74311 0 8.18367V8.34662C0.0638289 11.3167 0.580947 14.265 1.53699 17.1097C2.78025 20.7941 5.00056 24.1547 8.00851 26.9047C11.0693 29.6052 14.817 31.5996 18.9292 32.7166C22.1041 33.5849 25.3983 34.0541 28.7174 34.1107H28.859C30.468 34.1107 32.0112 33.5384 33.149 32.5198C34.2868 31.5012 34.926 30.1196 34.926 28.6791V27.1582L34.9462 27.0858ZM28.8792 30.4534C25.9435 30.4113 23.0292 29.9968 20.2235 29.2222C16.7337 28.2787 13.5495 26.5955 10.9409 24.3156C8.39971 21.9797 6.52645 19.1287 5.48057 16.0052C4.63054 13.4846 4.17455 10.8707 4.1256 8.23799C4.1256 7.7578 4.33867 7.29728 4.71793 6.95774C5.09719 6.61819 5.61159 6.42744 6.14795 6.42744H7.84672C8.11288 6.42606 8.37672 6.47173 8.62312 6.56183C8.86952 6.65194 9.09363 6.78469 9.28259 6.9525L9.82863 7.44134C10.7688 8.3169 11.291 9.48584 11.2847 10.7003C11.2848 11.4249 11.0907 12.139 10.7185 12.7825L9.44438 15.0819C9.3242 15.3177 9.26201 15.574 9.26201 15.8332C9.26201 16.0925 9.3242 16.3487 9.44438 16.5846C10.3788 18.6165 11.7535 20.4626 13.4891 22.0162C15.2238 23.5708 17.286 24.8016 19.5561 25.6373C19.8196 25.7449 20.1058 25.8006 20.3954 25.8006C20.685 25.8006 20.9712 25.7449 21.2347 25.6373L23.8031 24.4786C24.7883 24.0296 25.9078 23.8735 26.9988 24.033C28.0899 24.1926 29.0957 24.6594 29.8701 25.3658L30.4162 25.8727C30.7898 26.2099 31.0004 26.6651 31.0026 27.1401V28.6428C31.0031 28.89 30.9471 29.1347 30.838 29.3618C30.7288 29.5888 30.5689 29.7935 30.3681 29.9631C30.1672 30.1327 29.9297 30.2637 29.6702 30.348C29.4106 30.4324 29.1346 30.4682 28.859 30.4534H28.8792ZM19.455 9.07084C19.38 8.59546 19.519 8.11288 19.8413 7.72922C20.1637 7.34555 20.6431 7.09221 21.174 7.02492C21.5106 7.00138 21.8486 7.00138 22.1852 7.02492C23.0562 7.03594 23.921 7.15786 24.7536 7.38703C25.9433 7.727 27.0249 8.31692 27.9079 9.1075C28.791 9.89809 29.4499 10.8664 29.8297 11.9315C30.0906 12.6754 30.2202 13.4512 30.2139 14.2309C30.2473 14.5319 30.2473 14.8351 30.2139 15.1362C30.1415 15.6164 29.859 16.0511 29.4285 16.3448C28.9981 16.6385 28.4549 16.7671 27.9186 16.7023C27.3822 16.6375 26.8966 16.3845 26.5685 15.9992C26.2404 15.6138 26.0968 15.1275 26.1692 14.6473C26.1692 14.6473 26.1692 14.4663 26.1692 14.2309C26.1794 13.8192 26.111 13.4089 25.967 13.0178C25.7932 12.505 25.4808 12.0384 25.0575 11.6594C24.6342 11.2804 24.113 11.0007 23.5402 10.8452C23.1015 10.7209 22.6452 10.6538 22.1852 10.646C22.0372 10.6343 21.8883 10.6343 21.7403 10.646C21.4744 10.679 21.2038 10.6643 20.9443 10.6027C20.6848 10.5411 20.4416 10.4338 20.2289 10.2872C20.0162 10.1406 19.8382 9.95753 19.7053 9.7487C19.5725 9.53986 19.4874 9.30942 19.455 9.07084ZM38 12.4747V12.7281C38 13.2083 37.7869 13.6688 37.4076 14.0084C37.0284 14.3479 36.514 14.5387 35.9776 14.5387C35.4413 14.5387 34.9269 14.3479 34.5476 14.0084C34.1684 13.6688 33.9553 13.2083 33.9553 12.7281V12.5471C33.9482 11.6766 33.8053 10.8112 33.5306 9.97611C33.0903 8.56027 32.2537 7.26845 31.1 6.22291C29.9463 5.17737 28.5137 4.41271 26.9377 4.00131C26.0049 3.7554 25.0383 3.62743 24.066 3.62109H23.884C23.6184 3.62704 23.3541 3.58609 23.1062 3.50059C22.8583 3.4151 22.6316 3.28672 22.4391 3.1228C22.2467 2.95888 22.0921 2.76262 21.9844 2.54523C21.8766 2.32784 21.8177 2.09357 21.8111 1.85581C21.8044 1.61805 21.8502 1.38144 21.9457 1.1595C22.0412 0.937558 22.1845 0.734631 22.3676 0.562303C22.5507 0.389975 22.77 0.251621 23.0128 0.155141C23.2556 0.0586609 23.5173 0.0059441 23.7829 0H24.066C25.4365 0.00481882 26.7989 0.187782 28.1107 0.543164C30.3186 1.11887 32.3286 2.18391 33.9547 3.63971C35.5808 5.0955 36.7704 6.895 37.4135 8.87168C37.8045 10.0406 38.0021 11.2545 38 12.4747Z" fill="#222221"/>
</svg>
