<svg width="32" height="26" viewBox="0 0 32 26" fill="none" xmlns="http://www.w3.org/2000/svg">
<path d="M27.0832 0.333252H4.9165C3.65673 0.333252 2.44854 0.833697 1.55775 1.72449C0.666949 2.61529 0.166504 3.82347 0.166504 5.08325V20.9166C0.166504 22.1764 0.666949 23.3845 1.55775 24.2753C2.44854 25.1661 3.65673 25.6666 4.9165 25.6666H27.0832C28.3429 25.6666 29.5511 25.1661 30.4419 24.2753C31.3327 23.3845 31.8332 22.1764 31.8332 20.9166V5.08325C31.8332 3.82347 31.3327 2.61529 30.4419 1.72449C29.5511 0.833697 28.3429 0.333252 27.0832 0.333252ZM28.6665 20.9166C28.6665 21.3365 28.4997 21.7392 28.2028 22.0362C27.9058 22.3331 27.5031 22.4999 27.0832 22.4999H4.9165C4.49658 22.4999 4.09385 22.3331 3.79692 22.0362C3.49999 21.7392 3.33317 21.3365 3.33317 20.9166V5.08325C3.33317 4.66333 3.49999 4.2606 3.79692 3.96367C4.09385 3.66673 4.49658 3.49992 4.9165 3.49992H27.0832C27.5031 3.49992 27.9058 3.66673 28.2028 3.96367C28.4997 4.2606 28.6665 4.66333 28.6665 5.08325V20.9166ZM25.1515 8.85159C25.4104 9.1797 25.529 9.59687 25.4816 10.0121C25.4341 10.4274 25.2244 10.807 24.8982 11.0683L18.9607 15.8183C18.1195 16.4888 17.0756 16.854 15.9998 16.854C14.9241 16.854 13.8802 16.4888 13.039 15.8183L7.1015 11.0683C6.81305 10.796 6.6373 10.4253 6.60903 10.0297C6.58077 9.63401 6.70205 9.24215 6.94887 8.93163C7.1957 8.62111 7.55009 8.41455 7.94192 8.35281C8.33376 8.29108 8.73449 8.37867 9.06484 8.59825L15.0182 13.3483C15.2977 13.5691 15.6436 13.6893 15.9998 13.6893C16.3561 13.6893 16.702 13.5691 16.9815 13.3483L22.9348 8.59825C23.263 8.33936 23.6801 8.22071 24.0954 8.26817C24.5106 8.31562 24.8903 8.52534 25.1515 8.85159Z" fill="#222221"/>
</svg>
