<svg width="14" height="14" viewBox="0 0 14 14" fill="none" xmlns="http://www.w3.org/2000/svg">
<path d="M13.2013 7.22934L8.15941 12.8523C8.08106 12.9397 7.98805 13.009 7.88568 13.0563C7.78331 13.1036 7.67359 13.1279 7.56279 13.1279C7.45199 13.1279 7.34227 13.1036 7.2399 13.0563C7.13753 13.009 7.04452 12.9397 6.96617 12.8523C6.88782 12.7649 6.82567 12.6612 6.78327 12.547C6.74086 12.4329 6.71904 12.3105 6.71904 12.1869C6.71904 12.0633 6.74086 11.941 6.78327 11.8268C6.82567 11.7127 6.88782 11.6089 6.96617 11.5215L10.5795 7.50112H0.84031C0.617446 7.50112 0.40371 7.40238 0.246121 7.22663C0.0885326 7.05088 0 6.81251 0 6.56396C0 6.31541 0.0885326 6.07704 0.246121 5.90129C0.40371 5.72553 0.617446 5.6268 0.84031 5.6268H10.5795L6.96617 1.60638C6.80793 1.42991 6.71904 1.19056 6.71904 0.940995C6.71904 0.691428 6.80793 0.452082 6.96617 0.275611C7.1244 0.0991403 7.33901 3.71885e-09 7.56279 0C7.78656 -3.71884e-09 8.00117 0.0991403 8.15941 0.275611L13.2013 5.89857C13.28 5.98569 13.3425 6.08935 13.3852 6.20355C13.4279 6.31775 13.4498 6.44024 13.4498 6.56396C13.4498 6.68767 13.4279 6.81017 13.3852 6.92437C13.3425 7.03857 13.28 7.14222 13.2013 7.22934Z" fill="white"/>
</svg>
