<svg width="8" height="4" viewBox="0 0 8 4" fill="none" xmlns="http://www.w3.org/2000/svg">
<path d="M7.86935 0.684959L4.31541 3.8818C4.27411 3.91925 4.22498 3.94898 4.17085 3.96927C4.11671 3.98956 4.05865 4 4 4C3.94135 4 3.88329 3.98956 3.82915 3.96927C3.77502 3.94898 3.72589 3.91925 3.68459 3.8818L0.130648 0.684959C0.0469954 0.609712 -1.24652e-09 0.507655 0 0.40124C1.24652e-09 0.294824 0.0469954 0.192768 0.130648 0.11752C0.2143 0.0422734 0.327758 1.12127e-09 0.44606 0C0.564363 -1.12127e-09 0.67782 0.0422734 0.761472 0.11752L4 3.03464L7.23853 0.11752C7.32218 0.0422734 7.43564 0 7.55394 0C7.67224 0 7.7857 0.0422734 7.86935 0.11752C7.953 0.192768 8 0.294824 8 0.40124C8 0.507655 7.953 0.609712 7.86935 0.684959V0.684959Z" fill="#807E7C"/>
</svg>
