<svg width="34" height="34" viewBox="0 0 34 34" fill="none" xmlns="http://www.w3.org/2000/svg">
<path d="M33.38 12.7464C32.9247 11.2326 31.5589 10.0216 30.0414 9.87022L23.6677 8.96196L20.7844 2.9069C20.0256 1.24176 18.6598 0.333496 16.9905 0.333496C15.3212 0.333496 13.9554 1.24176 13.1966 2.75552L10.3133 8.81058L3.93962 9.87022C2.42207 10.173 1.05628 11.2326 0.601015 12.7464C-0.00600308 14.4115 0.44926 16.0767 1.6633 17.2877L6.36769 21.9803L5.30541 28.6409C5.0019 30.3061 5.76067 31.9712 7.12646 32.8795C7.88523 33.3336 8.64401 33.6363 9.55453 33.6363C10.3133 33.6363 10.9203 33.485 11.5273 33.1822L17.294 30.0033L23.0607 33.1822C24.4265 33.9391 26.0958 33.7877 27.4616 32.8795C28.8274 31.9712 29.5861 30.3061 29.2826 28.6409L28.2203 21.9803L32.9247 17.2877C33.5318 16.0767 33.987 14.2601 33.38 12.7464Z" fill="#C29544"/>
</svg>
